<svg width="343" height="255" viewBox="0 0 343 255" fill="none" xmlns="http://www.w3.org/2000/svg">
<g clip-path="url(#clip0_20254_63872)">
<path d="M342.181 224.096H0V224.267H342.181V224.096Z" fill="#EBEBEB"/>
<path d="M307.894 235.107H293.057V235.279H307.894V235.107Z" fill="#EBEBEB"/>
<path d="M235.878 231.555H212.534V231.726H235.878V231.555Z" fill="#EBEBEB"/>
<path d="M301.886 228.756H271.411V228.927H301.886V228.756Z" fill="#EBEBEB"/>
<path d="M118.407 232.205H110.784V232.376H118.407V232.205Z" fill="#EBEBEB"/>
<path d="M104.685 232.205H78.4128V232.376H104.685V232.205Z" fill="#EBEBEB"/>
<path d="M64.336 229.318H45.3792V229.489H64.336V229.318Z" fill="#EBEBEB"/>
<path d="M147.871 99.8694L148.179 90.8769L142.656 89.0702C142.43 85.9974 141.917 82.9657 141.184 80.0366L145.865 76.5875L142.69 68.1424L136.9 68.6078C135.518 65.8772 133.896 63.2766 132.082 60.8403L135.08 55.8376L128.914 49.2609L123.74 51.9094C121.406 49.9316 118.949 48.1317 116.322 46.5508L117.156 40.809L108.944 37.0793L105.18 41.4865C102.313 40.5558 99.3425 39.8578 96.2697 39.3992L94.8736 33.7669L85.8537 33.459L84.0744 38.9818C80.9742 39.235 77.9699 39.7209 75.0408 40.4532L71.5643 35.7995L63.1192 38.9544L63.5846 44.7441C60.854 46.147 58.2534 47.769 55.8171 49.5825L50.8349 46.585L44.2309 52.7238L46.8793 57.9249C44.9015 60.2312 43.1017 62.7155 41.5413 65.3434L35.7995 64.4811L32.0492 72.6934L36.4839 76.4574C35.5532 79.3249 34.8346 82.3156 34.3966 85.3678L28.7438 86.7913L28.4358 95.7838L33.9791 97.5905C34.205 100.684 34.7182 103.695 35.4505 106.617L30.7695 110.066L33.9449 118.511L39.7346 118.046C41.117 120.777 42.7389 123.377 44.5525 125.814L41.555 130.816L47.7211 137.393L52.8949 134.745C55.2012 136.722 57.6854 138.522 60.3134 140.11L59.4511 145.852L67.6634 149.581L71.4479 145.174C74.3154 146.105 77.2855 146.803 80.3583 147.261L81.7544 152.894L90.7743 153.202L92.5536 147.679C95.647 147.426 98.6581 146.94 101.58 146.208L105.03 150.861L113.475 147.706L113.03 141.917C115.76 140.514 118.334 138.892 120.797 137.071L125.779 140.069L132.383 133.93L129.735 128.729C131.713 126.423 133.513 123.938 135.073 121.31L140.815 122.173L144.565 113.96L140.13 110.196C141.061 107.329 141.78 104.359 142.218 101.286L147.85 99.8626L147.871 99.8694ZM87.0993 129.003C67.4033 128.325 51.9847 111.812 52.6554 92.1156C53.3329 72.3992 69.8465 56.9737 89.5424 57.6512C109.238 58.3287 124.657 74.8423 123.986 94.5588C123.309 114.255 106.795 129.673 87.0993 129.003Z" fill="#EBEBEB"/>
<path d="M301.777 70.1262L304.043 68.0115L303.139 66.2253C303.83 65.4178 304.446 64.5555 304.98 63.6658L306.965 63.9669L308.251 61.1337L306.725 59.8334C307.054 58.8342 307.293 57.8008 307.444 56.7675L309.394 56.2816L309.497 53.1746L307.588 52.5586C307.506 51.5047 307.341 50.4713 307.088 49.4448L308.696 48.2471L307.601 45.3386L305.61 45.496C305.138 44.5721 304.583 43.6756 303.947 42.8133L304.98 41.1024L302.859 38.8303L301.079 39.7405C300.265 39.0493 299.41 38.4334 298.52 37.8996L298.807 35.915L295.981 34.6215L294.681 36.1476C293.675 35.826 292.641 35.5865 291.608 35.4359L291.122 33.4923L288.015 33.3828L287.392 35.299C286.345 35.3812 285.305 35.5454 284.278 35.8055L283.087 34.1972L280.172 35.2853L280.336 37.2837C279.412 37.7559 278.502 38.3102 277.654 38.9467L275.929 37.9133L273.664 40.028L274.574 41.821C273.876 42.6285 273.267 43.4908 272.733 44.3805L270.748 44.0794L269.462 46.9126L270.988 48.2129C270.659 49.2121 270.42 50.2455 270.269 51.2789L268.319 51.7648L268.216 54.8718L270.126 55.4877C270.208 56.5348 270.372 57.575 270.625 58.6015L269.017 59.7923L270.112 62.7009L272.11 62.5503C272.583 63.4742 273.137 64.3707 273.773 65.233L272.74 66.9439L274.861 69.216L276.641 68.3058C277.455 68.997 278.311 69.6129 279.2 70.1467L278.906 72.1245L281.732 73.418L283.033 71.8987C284.039 72.2203 285.065 72.453 286.106 72.6104L286.591 74.554L289.698 74.6635L290.321 72.7473C291.368 72.6652 292.408 72.5009 293.435 72.2409L294.626 73.8491L297.541 72.761L297.377 70.7626C298.301 70.2904 299.204 69.743 300.06 69.0997L301.777 70.1262ZM285.613 57.0344C283.943 55.2482 284.039 52.4423 285.825 50.7793C287.611 49.1094 290.417 49.2053 292.087 50.9914C293.757 52.7776 293.661 55.5835 291.868 57.2534C290.082 58.9232 287.276 58.8274 285.613 57.0412V57.0344Z" fill="#EBEBEB"/>
<path d="M218.989 162.455L211.913 157.569V157.555C211.215 154.982 210.25 152.512 209.066 150.185L210.879 143.067L200.614 132.077L193.387 133.397C191.149 132.063 188.747 130.927 186.236 130.058C186.236 130.058 186.222 130.058 186.215 130.058L181.821 122.66L166.793 122.146L161.906 129.223C161.906 129.223 161.886 129.223 161.879 129.223C159.313 129.921 156.835 130.886 154.515 132.063L147.405 130.249L136.414 140.515L137.735 147.728C136.373 149.993 135.264 152.395 134.395 154.907L126.997 159.3L126.484 174.336L133.567 179.229C134.265 181.816 135.203 184.287 136.407 186.634L134.6 193.731L144.866 204.722L152.045 203.408C154.31 204.749 156.719 205.878 159.265 206.754L163.652 214.138L178.68 214.652L183.566 207.582C186.167 206.884 188.644 205.919 190.992 204.735L198.075 206.542L209.066 196.277L207.745 189.063C209.107 186.798 210.216 184.396 211.085 181.878L218.483 177.484L218.996 162.449L218.989 162.455ZM172.144 185.306C162.803 184.985 155.501 177.142 155.822 167.821C156.144 158.479 163.96 151.177 173.308 151.499C182.649 151.82 189.952 159.636 189.63 168.984C189.308 178.298 181.493 185.628 172.144 185.306Z" fill="#EBEBEB"/>
<path d="M235.113 119.766C235.113 119.766 235.079 119.766 235.065 119.766L223.212 119.362C222.719 119.348 222.267 119.082 222.021 118.657L218.832 113.285C217.135 112.669 215.465 111.896 213.85 110.972L208.71 111.909C208.224 111.998 207.731 111.834 207.396 111.471L199.3 102.807C198.965 102.445 198.835 101.938 198.958 101.466L200.251 96.395C199.464 94.7867 198.807 93.0758 198.294 91.2828L193.141 87.7241C192.737 87.4435 192.498 86.9781 192.518 86.4854L192.922 74.6323C192.936 74.1395 193.202 73.6878 193.627 73.4415L199.013 70.2455C199.649 68.5004 200.422 66.8305 201.319 65.2839L200.375 60.1306C200.286 59.6447 200.45 59.152 200.813 58.8167L209.483 50.7207C209.846 50.3853 210.353 50.2553 210.825 50.3785L215.91 51.6788C217.559 50.8781 219.263 50.2211 221.008 49.7146L224.567 44.5614C224.847 44.1576 225.306 43.9044 225.805 43.9386L237.659 44.3424C238.151 44.3561 238.603 44.623 238.849 45.0473L242.045 50.4332C243.743 51.056 245.406 51.8293 246.993 52.7395L252.16 51.7951C252.646 51.7061 253.139 51.8704 253.474 52.2331L261.57 60.904C261.905 61.2667 262.036 61.7731 261.912 62.2453L260.612 67.337C261.413 68.9863 262.07 70.6903 262.576 72.4355L267.723 75.9941C268.126 76.2747 268.359 76.7401 268.345 77.2328L267.942 89.086C267.928 89.5787 267.661 90.0304 267.237 90.2768L261.851 93.4727C261.214 95.2179 260.441 96.8809 259.544 98.4275L260.489 103.588C260.578 104.073 260.414 104.566 260.051 104.902L251.387 112.991C251.024 113.326 250.525 113.456 250.046 113.333L244.981 112.039C243.311 112.847 241.594 113.504 239.855 114.004L236.304 119.15C236.03 119.54 235.592 119.773 235.113 119.773V119.766ZM224.101 116.495L234.374 116.844L237.775 111.916C237.967 111.636 238.261 111.43 238.589 111.341C240.478 110.835 242.36 110.116 244.167 109.199C244.167 109.199 244.167 109.199 244.174 109.199C244.475 109.049 244.831 109.008 245.173 109.097L249.991 110.322L257.505 103.307L256.609 98.4001C256.547 98.0511 256.609 97.6952 256.793 97.3941C257.786 95.7517 258.627 93.9449 259.291 92.0356C259.401 91.6934 259.633 91.4128 259.935 91.2349L265.081 88.1758L265.43 77.9035L260.503 74.5022C260.243 74.3243 260.051 74.0642 259.955 73.77C259.941 73.7357 259.935 73.6947 259.921 73.6536C259.408 71.7648 258.689 69.9102 257.792 68.1445C257.635 67.8297 257.594 67.4738 257.683 67.1317L258.915 62.2864L251.9 54.7721L246.98 55.6754C246.637 55.737 246.282 55.6754 245.98 55.4975C244.269 54.4778 242.463 53.636 240.608 52.9859C240.506 52.9517 240.396 52.9038 240.307 52.8422C240.109 52.719 239.944 52.5479 239.821 52.3494L236.762 47.1962L226.49 46.8472L223.089 51.7746C222.883 52.0689 222.582 52.2742 222.24 52.3563C220.337 52.8764 218.49 53.5881 216.731 54.4846C216.416 54.6421 216.06 54.6831 215.718 54.5941L210.873 53.3623L203.358 60.377L204.255 65.2839C204.31 65.5918 204.269 65.9135 204.125 66.1872C204.104 66.2283 204.084 66.2625 204.056 66.3036C203.064 67.9529 202.222 69.7664 201.558 71.6827C201.449 72.0043 201.223 72.2781 200.929 72.4491L195.776 75.5082L195.427 85.7805L200.361 89.1886C200.641 89.3803 200.847 89.6677 200.936 90.003C201.47 91.974 202.181 93.8423 203.064 95.56C203.112 95.6559 203.153 95.7653 203.18 95.868C203.235 96.1007 203.235 96.3402 203.18 96.5729L201.949 101.398L208.963 108.912L213.85 108.015C214.192 107.954 214.548 108.015 214.842 108.193C216.587 109.22 218.401 110.069 220.242 110.705C220.577 110.808 220.864 111.033 221.042 111.341L224.095 116.488L224.101 116.495ZM230.445 103.519C230.192 103.519 229.939 103.519 229.686 103.505C217.744 103.095 208.368 93.0484 208.772 81.1132C209.182 69.171 219.242 59.7953 231.164 60.1991C243.106 60.6097 252.482 70.6561 252.078 82.5914C251.88 88.3674 249.443 93.7259 245.214 97.6747C241.169 101.459 235.948 103.512 230.439 103.512L230.445 103.519ZM230.418 63.0802C220.358 63.0802 212.009 71.0873 211.66 81.2158C211.304 91.5634 219.434 100.268 229.782 100.624C234.798 100.795 239.575 99.0024 243.243 95.5737C246.904 92.1519 249.019 87.5051 249.19 82.5024C249.546 72.1549 241.416 63.4498 231.068 63.0939C230.849 63.0871 230.63 63.0802 230.418 63.0802Z" fill="#EBEBEB"/>
<path d="M262.412 34.473L257.505 33.1522L256.184 28.2453L258.107 26.3223L260.133 30.5242L264.335 32.55L262.412 34.473Z" fill="#E0E0E0"/>
<path d="M262.712 31.1884C263.608 30.2919 263.608 28.8342 262.712 27.9445C261.815 27.048 260.364 27.0549 259.475 27.9445L261.918 24.2832L265.196 25.9394L265.914 29.3817L262.718 31.1884H262.712Z" fill="#E0E0E0"/>
<path d="M257.716 26.7111L261.315 23.1113L266.222 24.4321L267.543 29.339L263.943 32.9388L259.036 31.6179L257.716 26.7111ZM264.251 29.6538C265.148 28.7573 265.148 27.2996 264.251 26.41C263.355 25.5134 261.904 25.5203 261.014 26.41C260.118 27.3065 260.118 28.7505 261.014 29.6401C261.911 30.5367 263.362 30.5435 264.251 29.6401V29.6538Z" fill="#F0F0F0"/>
<path d="M61.7438 165.453L64.3786 164.741L65.0835 162.107L64.057 161.08L62.9688 163.332L60.7104 164.42L61.7438 165.453Z" fill="#E0E0E0"/>
<path d="M61.5793 163.688C61.1003 163.209 61.1003 162.429 61.5793 161.943C62.0584 161.457 62.8385 161.464 63.3176 161.943L62.0105 159.979L60.2516 160.868L59.8684 162.716L61.5793 163.688Z" fill="#E0E0E0"/>
<path d="M64.261 161.285L62.3311 159.355L59.6964 160.06L58.9915 162.695L60.9214 164.625L63.5562 163.92L64.261 161.285ZM60.7571 162.866C60.2781 162.387 60.2781 161.607 60.7571 161.121C61.2362 160.635 62.0163 160.642 62.4954 161.121C62.9744 161.6 62.9744 162.374 62.4954 162.859C62.0163 163.345 61.2362 163.345 60.7571 162.859V162.866Z" fill="#F0F0F0"/>
<path d="M52.2585 21.0182L54.4417 23.2013C55.0097 23.7693 55.9404 23.7693 56.5084 23.2013C57.0764 22.6333 57.0764 21.7025 56.5084 21.1345L54.3253 18.9514C53.7573 18.3834 52.8266 18.3834 52.2585 18.9514C51.6905 19.5194 51.6905 20.4502 52.2585 21.0182Z" fill="#F0F0F0"/>
<path d="M50.717 15.5715C52.4005 14.9692 54.2278 15.7562 54.7958 17.3371C55.3638 18.918 54.4605 20.6905 52.7769 21.2996C51.0934 21.9018 49.2661 21.1148 48.6981 19.5339C48.1301 17.9531 49.0335 16.1806 50.717 15.5715Z" fill="#E0E0E0"/>
<path d="M48.3344 19.1645L48.6514 20.0469L55.1564 17.71L54.8394 16.8277L48.3344 19.1645Z" fill="#F0F0F0"/>
<path d="M171.09 254.998C244.373 254.998 303.781 251.529 303.781 247.251C303.781 242.972 244.373 239.504 171.09 239.504C97.8067 239.504 38.3989 242.972 38.3989 247.251C38.3989 251.529 97.8067 254.998 171.09 254.998Z" fill="#F5F5F5"/>
<path d="M59.3484 44.9553C58.664 41.9441 58.972 39.4051 60.2654 37.3452C61.5657 35.2853 63.7078 33.9165 66.7053 33.2322C69.7781 32.5341 72.3307 32.8215 74.3701 34.0945C76.4095 35.3674 77.7646 37.4889 78.4421 40.459C78.9348 42.6148 78.9691 44.4694 78.5584 46.016C78.1478 47.5627 77.3403 48.8767 76.1426 49.958C74.945 51.0393 73.3231 51.8126 71.27 52.278C69.1895 52.7502 67.3897 52.8118 65.8772 52.4559C64.3648 52.1 63.0166 51.3062 61.8463 50.0606C60.6692 48.8151 59.8411 47.1179 59.3484 44.9621V44.9553ZM65.056 43.6824C65.4803 45.5438 66.1304 46.8099 67.0064 47.46C67.8824 48.117 68.9158 48.3087 70.1134 48.0349C71.3384 47.7543 72.1939 47.1452 72.6866 46.194C73.1794 45.2427 73.1862 43.7371 72.7208 41.6703C72.3239 39.9321 71.6874 38.7413 70.8046 38.098C69.9218 37.4547 68.8816 37.2699 67.6771 37.5436C66.5274 37.8037 65.6924 38.4196 65.186 39.3914C64.6727 40.3632 64.6317 41.7935 65.0628 43.6687L65.056 43.6824Z" fill="#263238"/>
<path d="M81.1602 42.6945C80.6948 40.6551 81.0028 38.8142 82.0772 37.1786C83.1517 35.543 84.8626 34.4617 87.2031 33.9279C89.8789 33.3188 92.0826 33.6336 93.8003 34.8791C95.1827 35.8783 96.0861 37.2949 96.5036 39.129C96.9689 41.1889 96.6747 43.0299 95.607 44.6518C94.5394 46.2737 92.8012 47.3619 90.3922 47.9094C88.2433 48.3953 86.3819 48.2516 84.8078 47.4577C82.8711 46.4791 81.6529 44.8913 81.1533 42.7014L81.1602 42.6945ZM86.2929 41.5174C86.5666 42.7082 87.0046 43.5363 87.6205 43.9948C88.2296 44.4533 88.9071 44.6039 89.6326 44.4397C90.3717 44.2686 90.9123 43.8511 91.2614 43.1804C91.6104 42.5098 91.6378 41.5517 91.3572 40.313C91.0903 39.1564 90.6591 38.342 90.05 37.8903C89.441 37.4318 88.784 37.2812 88.0791 37.4455C87.3331 37.6166 86.7788 38.0409 86.4229 38.7321C86.067 39.4164 86.0191 40.3472 86.2929 41.5243V41.5174Z" fill="#263238"/>
<path d="M101.682 50.3729L97.4868 31.9088L102.284 30.8207L102.736 32.7985C103.208 31.8199 103.694 31.115 104.18 30.6975C104.837 30.1363 105.617 29.7462 106.527 29.5409C108.313 29.1372 109.853 29.5067 111.14 30.6496C112.426 31.7925 113.302 33.3734 113.761 35.3922C114.267 37.6164 114.117 39.4368 113.323 40.8466C112.522 42.2632 111.311 43.1529 109.682 43.5224C108.895 43.7004 108.142 43.7277 107.431 43.6114C106.719 43.4882 106.048 43.2213 105.412 42.8107L106.863 49.1958L101.689 50.3729H101.682ZM104.153 37.4658C104.392 38.5266 104.796 39.2589 105.357 39.6695C105.918 40.0801 106.541 40.2101 107.218 40.0527C107.814 39.9159 108.259 39.56 108.553 38.9783C108.847 38.3966 108.854 37.5137 108.587 36.3435C108.341 35.2622 107.951 34.5162 107.417 34.0988C106.883 33.6882 106.315 33.5513 105.706 33.6882C105.049 33.8387 104.563 34.2151 104.241 34.831C103.92 35.4401 103.892 36.323 104.153 37.4727V37.4658Z" fill="#263238"/>
<path d="M115.951 37.8767L120.926 36.2411C121.275 36.7954 121.665 37.165 122.103 37.336C122.541 37.5071 123.075 37.5277 123.705 37.3839C124.396 37.2265 124.895 36.9596 125.203 36.5832C125.45 36.2958 125.532 35.9947 125.457 35.6662C125.374 35.2966 125.114 35.0571 124.683 34.9408C124.375 34.8587 123.602 34.8518 122.356 34.9134C120.509 35.0092 119.202 35.0024 118.449 34.8929C117.696 34.7834 117.012 34.4686 116.396 33.9485C115.78 33.4283 115.376 32.7645 115.198 31.957C115 31.0741 115.082 30.2597 115.451 29.5069C115.821 28.7541 116.416 28.1177 117.244 27.5976C118.072 27.0775 119.243 26.6463 120.748 26.3041C122.343 25.9414 123.547 25.7977 124.362 25.8661C125.176 25.9346 125.895 26.1741 126.517 26.5642C127.14 26.9611 127.722 27.5565 128.256 28.3572L123.506 29.9381C123.28 29.5412 123 29.2743 122.664 29.1374C122.199 28.9595 121.686 28.9389 121.111 29.069C120.529 29.199 120.132 29.3974 119.913 29.6643C119.694 29.9312 119.619 30.2118 119.687 30.5061C119.763 30.8346 119.989 31.0399 120.358 31.1357C120.734 31.2247 121.494 31.211 122.651 31.0878C124.396 30.8962 125.73 30.8757 126.634 31.0262C127.544 31.1836 128.29 31.5258 128.878 32.0665C129.467 32.6071 129.843 33.2572 130.014 34.0169C130.192 34.7902 130.124 35.5909 129.83 36.4258C129.529 37.2608 128.926 38.0067 128.023 38.6705C127.12 39.3275 125.799 39.8545 124.074 40.2514C121.631 40.8058 119.811 40.8537 118.62 40.3951C117.422 39.9366 116.533 39.0948 115.951 37.8767Z" fill="#263238"/>
<path d="M132.665 20.9463L138.283 20.9121L138.311 25.2236L137.277 33.8945L133.801 33.915L132.692 25.2578L132.665 20.9463ZM132.938 35.2426L138.181 35.2153L138.208 39.8484L132.966 39.8758L132.938 35.2426Z" fill="#263238"/>
<path d="M88.0638 79.8169C88.0227 79.8169 87.9816 79.8101 87.9406 79.7964C84.861 78.6056 83.02 77.4354 82.0619 76.0393C81.3639 76.1761 80.5905 76.0872 79.8514 75.7381C79.1328 75.396 78.4416 74.8006 77.9489 73.9451C77.4835 74.301 76.9155 74.3968 76.2859 74.2052C75.5879 73.9862 74.8693 73.4045 74.267 72.5559C73.8838 72.8296 73.4937 72.8707 73.2063 72.8501C71.1737 72.6859 68.4157 68.6345 68.2173 64.3162C68.2104 64.1245 68.3542 63.9671 68.5458 63.9603C68.7305 63.9466 68.8948 64.0972 68.9016 64.2888C69.0864 68.3881 71.7144 72.0426 73.261 72.1658C73.5142 72.1932 73.7195 72.111 73.8975 71.9742C72.9667 70.3454 72.4877 68.0186 73.1994 65.5343C73.788 63.4812 74.3081 62.6737 74.9309 62.8242C76.108 63.1185 75.9574 67.5942 75.3278 70.5507C75.1841 71.2214 74.9788 71.7004 74.7461 72.0426C75.2867 72.8433 75.9232 73.3771 76.4844 73.555C76.9839 73.7124 77.3535 73.5824 77.6272 73.3155C77.0866 71.9878 76.9771 70.188 77.7094 67.8817C78.6675 64.85 79.0576 64.7678 79.2902 64.7199C79.4545 64.6857 79.6187 64.7405 79.7282 64.8705C80.3579 65.5822 79.6051 70.2906 78.8112 72.6175C78.7085 72.9186 78.5785 73.1855 78.428 73.4113C78.8523 74.2462 79.4819 74.8143 80.132 75.1222C80.659 75.3754 81.1996 75.4644 81.6855 75.4165C81.6239 75.2865 81.5692 75.1564 81.5213 75.0196C80.9806 73.5482 81.2407 71.851 82.3288 69.8321C83.0542 68.4908 83.6428 67.868 84.1834 67.868C84.3477 67.868 84.642 67.9296 84.861 68.3197C85.4563 69.4215 85.0252 73.0555 83.8481 74.8553C83.5675 75.2796 83.1843 75.6013 82.7394 75.8134C83.6565 77.0179 85.3948 78.0787 88.1801 79.16C88.358 79.2284 88.447 79.4269 88.3786 79.6048C88.3238 79.7417 88.1938 79.8238 88.0569 79.8238L88.0638 79.8169ZM84.1971 68.5455C84.1971 68.5455 83.807 68.5455 82.9447 70.1538C81.9524 71.9879 81.706 73.5003 82.1714 74.78C82.2262 74.9374 82.2946 75.088 82.3767 75.2386C82.7394 75.0812 83.0542 74.8279 83.2801 74.4858C84.2382 73.0212 84.6967 70.01 84.3408 68.8329C84.2656 68.5934 84.1903 68.5524 84.1903 68.5524L84.1971 68.5455ZM79.2902 65.6643C79.1123 65.9997 78.818 66.6772 78.3732 68.0801C77.7846 69.9348 77.7847 71.4198 78.1131 72.5627C78.1337 72.508 78.1542 72.4464 78.1747 72.3916C78.9823 70.0374 79.3724 66.8004 79.2902 65.6643ZM74.7803 63.5086C74.664 63.6181 74.3355 64.0493 73.8564 65.7122C73.2268 67.9091 73.6169 69.9142 74.356 71.3582C74.4997 71.064 74.5955 70.7218 74.664 70.4001C75.3757 67.0399 75.1704 64.0013 74.7803 63.5154V63.5086Z" fill="#263238"/>
<path d="M114.083 115.686C113.043 115.686 111.941 115.446 110.962 114.871C110.798 114.776 110.743 114.564 110.839 114.406C110.935 114.242 111.147 114.187 111.304 114.283C113.748 115.713 116.903 114.714 117.553 113.674C117.628 113.551 117.696 113.393 117.655 113.215C116.69 113.318 115.5 113.065 114.145 112.209C112.406 111.121 112.269 110.8 112.276 110.539C112.276 110.389 112.372 110.252 112.509 110.184C113.193 109.841 116.28 111.258 117.566 112.107C117.737 112.216 117.874 112.339 117.991 112.463C118.559 112.326 119.004 112.031 119.291 111.676C119.489 111.436 119.626 111.169 119.695 110.909C119.647 110.909 119.606 110.923 119.558 110.923C118.463 111.032 117.368 110.56 116.198 109.486C115.397 108.74 115.082 108.233 115.185 107.823C115.219 107.693 115.329 107.46 115.678 107.378C116.622 107.145 118.963 108.137 119.914 109.184C120.126 109.417 120.276 109.698 120.352 109.992C121.241 109.575 122.193 108.63 123.308 107.07C123.418 106.919 123.63 106.878 123.787 106.988C123.938 107.097 123.979 107.309 123.869 107.467C122.576 109.273 121.501 110.3 120.413 110.717C120.372 111.196 120.174 111.689 119.818 112.114C119.469 112.531 118.963 112.887 118.326 113.078C118.394 113.386 118.326 113.715 118.134 114.03C117.56 114.96 115.903 115.686 114.083 115.686ZM113.474 110.936C113.707 111.108 114.035 111.333 114.507 111.628C115.438 112.209 116.266 112.476 116.971 112.531C115.835 111.826 114.357 111.203 113.474 110.936ZM115.862 108.028C115.903 108.137 116.054 108.418 116.663 108.979C117.683 109.917 118.607 110.341 119.489 110.238C119.565 110.232 119.633 110.218 119.708 110.204C119.661 109.999 119.558 109.807 119.414 109.636C118.449 108.582 116.335 107.912 115.869 108.021L115.862 108.028Z" fill="#263238"/>
<path d="M123.144 114.747L112.482 116.683L102.798 63.8438L82.2263 67.5804L48.6995 127.12L52.2992 146.768L95.3045 138.959L98.2472 155.028L118.819 151.291L115.876 135.223L126.539 133.286L123.144 114.753V114.747ZM69.1824 124.547L86.9484 93.3603L91.9032 120.42L69.1824 124.547Z" fill="#5286FF"/>
<path d="M209.025 60.2484C208.628 56.6007 207.896 53.3569 206.835 50.5168C205.774 47.6835 204.179 44.8981 202.051 42.1744C199.923 39.4506 197.021 37.0827 193.36 35.0776C189.692 33.0724 184.853 31.6763 178.838 30.8961C166.321 29.2673 156.562 31.4847 149.561 37.5618C142.56 43.6389 137.954 55.2731 135.736 72.4711C134.833 79.4653 134.614 85.9325 135.066 91.8659C135.517 97.8062 136.612 102.576 138.337 106.19C140.698 111.268 144.038 115.319 148.363 118.351C152.681 121.382 158.601 123.388 166.122 124.366C179.536 126.111 189.473 123.538 195.94 116.64C202.407 109.741 206.698 98.0867 208.813 81.6689C209.757 74.3462 209.825 67.2015 209.032 60.2347L209.025 60.2484Z" fill="#5286FF"/>
<path d="M172.301 117.351C170.659 117.296 168.907 117.146 167.093 116.913C160.831 116.099 155.979 114.511 152.687 112.198C149.437 109.919 146.973 106.915 145.166 103.021L145.132 102.952C143.818 100.201 142.956 96.2796 142.579 91.2974C142.162 85.8978 142.374 79.8891 143.209 73.4356C145.652 54.4651 150.696 46.547 154.501 43.2484C158.936 39.4023 164.917 37.664 172.794 37.9309C174.409 37.9857 176.12 38.1294 177.872 38.3621C182.929 39.019 186.926 40.1414 189.759 41.6881C192.504 43.1868 194.646 44.9114 196.131 46.8139C197.773 48.9218 199.005 51.0501 199.792 53.158C200.627 55.3958 201.222 58.058 201.551 61.0692C202.283 67.4406 202.208 74.0378 201.352 80.724C199.457 95.4652 195.789 105.82 190.457 111.507C186.502 115.729 180.568 117.639 172.315 117.358L172.301 117.351Z" fill="#263238"/>
<path d="M185.694 60.4473L185.783 57.8535L184.189 57.3334C184.12 56.4506 183.976 55.5746 183.764 54.7328L185.112 53.7405L184.195 51.3042L182.526 51.4411C182.129 50.654 181.663 49.9081 181.136 49.2032L181.999 47.7592L180.219 45.8635L178.727 46.63C178.057 46.062 177.345 45.5419 176.592 45.0833L176.832 43.4272L174.464 42.3527L173.382 43.6256C172.554 43.3587 171.699 43.1603 170.816 43.0234L170.412 41.4015L167.812 41.3125L167.299 42.9071C166.409 42.9823 165.54 43.1192 164.698 43.3314L163.699 41.99L161.262 42.9002L161.399 44.5701C160.612 44.9738 159.866 45.4392 159.161 45.9662L157.724 45.1039L155.822 46.8764L156.588 48.3751C156.02 49.0389 155.5 49.7575 155.048 50.5103L153.392 50.2639L152.311 52.6318L153.591 53.7131C153.324 54.5412 153.112 55.4035 152.989 56.2795L151.36 56.6901L151.271 59.2838L152.872 59.804C152.941 60.6936 153.084 61.5628 153.296 62.4045L151.948 63.3969L152.865 65.8332L154.535 65.6963C154.932 66.4833 155.397 67.2293 155.924 67.9342L155.062 69.3782L156.841 71.2739L158.333 70.5074C158.997 71.0754 159.716 71.5955 160.469 72.054L160.222 73.7102L162.59 74.7846L163.678 73.5117C164.506 73.7786 165.362 73.9771 166.245 74.114L166.648 75.7359L169.249 75.8249L169.762 74.2303C170.652 74.155 171.521 74.0181 172.363 73.806L173.355 75.1473L175.791 74.2371L175.661 72.5673C176.448 72.1635 177.194 71.6982 177.899 71.1712L179.336 72.0335L181.239 70.261L180.472 68.7623C181.04 68.0984 181.561 67.3798 182.012 66.627L183.668 66.8734L184.75 64.5055L183.47 63.4242C183.737 62.5961 183.942 61.7407 184.072 60.8579L185.694 60.4473ZM168.174 68.8444C162.494 68.6528 158.053 63.8896 158.244 58.2094C158.436 52.5223 163.199 48.0808 168.879 48.2725C174.56 48.4641 179.001 53.2272 178.809 58.9143C178.618 64.5945 173.855 69.036 168.174 68.8444Z" fill="#5286FF"/>
<path opacity="0.3" d="M196.494 108.066L196.679 106.321L195.631 105.89C195.631 105.288 195.577 104.692 195.474 104.118L196.432 103.508L195.946 101.818H194.81C194.578 101.277 194.311 100.744 193.989 100.244L194.639 99.3133L193.537 97.9446L192.49 98.3826C192.073 97.9651 191.621 97.5819 191.128 97.2397L191.382 96.1242L189.842 95.2756L189.034 96.09C188.48 95.8573 187.912 95.6862 187.337 95.5493L187.145 94.427L185.4 94.2285L184.969 95.2756C184.367 95.2756 183.778 95.3372 183.197 95.4398L182.588 94.4749L180.897 94.9676V96.1037C180.363 96.3363 179.83 96.6033 179.323 96.9249L178.392 96.2679L177.024 97.3697L177.462 98.4168C177.058 98.8343 176.661 99.2859 176.319 99.7787L175.217 99.5323L174.368 101.072L175.176 101.866C174.95 102.427 174.772 102.988 174.635 103.57L173.513 103.755L173.328 105.5L174.375 105.938C174.375 106.533 174.43 107.122 174.533 107.704L173.568 108.313L174.06 110.003H175.196C175.429 110.544 175.696 111.077 176.018 111.577L175.361 112.508L176.456 113.883L177.51 113.439C177.927 113.856 178.379 114.239 178.871 114.581L178.618 115.697L180.158 116.546L180.966 115.738C181.52 115.964 182.088 116.135 182.663 116.272L182.854 117.394L184.6 117.593L185.031 116.539C185.626 116.539 186.221 116.477 186.803 116.374L187.412 117.339L189.096 116.847V115.711C189.636 115.478 190.17 115.211 190.677 114.889L191.601 115.546L192.976 114.451L192.531 113.404C192.949 112.987 193.332 112.535 193.681 112.042L194.783 112.289L195.631 110.749L194.824 109.955C195.05 109.394 195.221 108.833 195.358 108.258L196.487 108.066H196.494ZM187.686 107.389C186.872 108.867 185.017 109.415 183.539 108.6C182.061 107.786 181.527 105.931 182.334 104.453C183.149 102.975 184.996 102.441 186.475 103.248C187.953 104.063 188.5 105.911 187.686 107.389Z" fill="#5286FF"/>
<path d="M206.19 78.4935L204.151 77.0837C203.952 76.3446 203.672 75.626 203.33 74.9622L203.85 72.9091L200.893 69.7405L198.813 70.1238C198.17 69.7405 197.478 69.412 196.753 69.1588L195.487 67.0236L191.155 66.873L189.745 68.9124C189.745 68.9124 189.745 68.9124 189.738 68.9124C188.999 69.1109 188.287 69.3915 187.617 69.7337L185.564 69.2136L182.395 72.17L182.778 74.2505C182.388 74.9006 182.067 75.5987 181.813 76.3172L179.678 77.5833L179.528 81.9153L181.567 83.3251C181.765 84.0711 182.039 84.7828 182.388 85.4603L181.868 87.5066L184.825 90.6751L186.891 90.2987C187.541 90.682 188.24 91.0105 188.972 91.2637L190.238 93.3921L194.57 93.5426L195.98 91.5032C196.726 91.3048 197.444 91.0242 198.122 90.682L200.161 91.2021L203.33 88.2457L202.946 86.1652C203.337 85.5151 203.658 84.817 203.911 84.0916L206.047 82.8255L206.197 78.4935H206.19ZM192.688 85.0771C189.991 84.9881 187.89 82.7229 187.979 80.0402C188.068 77.3438 190.327 75.2428 193.016 75.3318C195.713 75.4207 197.814 77.6791 197.725 80.3687C197.636 83.0514 195.377 85.166 192.688 85.0771Z" fill="white"/>
<path d="M221.075 43.9133L221.431 43.051C221.684 42.921 221.931 42.7568 222.15 42.5857L222.944 42.6131L223.874 41.2785L223.573 40.5463C223.662 40.2794 223.731 39.9988 223.765 39.7114L224.449 39.0817L224.162 37.4803L223.3 37.1245C223.17 36.8713 223.012 36.6317 222.834 36.4127L222.862 35.6189L221.527 34.6881L220.795 34.9893C220.521 34.8935 220.247 34.8319 219.96 34.7976L219.33 34.1133L217.729 34.4007L217.373 35.263C217.113 35.393 216.873 35.5504 216.654 35.7284L215.861 35.701L214.93 37.0355L215.231 37.7678C215.142 38.0347 215.074 38.3153 215.039 38.6095L214.355 39.2392L214.642 40.8406L215.505 41.1964C215.635 41.4565 215.799 41.696 215.977 41.915L215.95 42.702L217.284 43.6328L218.016 43.3316C218.29 43.4274 218.564 43.489 218.851 43.5233L219.488 44.2076L221.089 43.9202L221.075 43.9133ZM217.592 39.4718C217.414 38.4727 218.078 37.5282 219.07 37.3503C220.069 37.1724 221.014 37.8362 221.192 38.8285C221.37 39.8209 220.706 40.7721 219.714 40.9501C218.721 41.128 217.77 40.4642 217.592 39.4718Z" fill="#5286FF"/>
<path d="M202.305 39.3764L201.785 38.9384C202.695 37.864 203.982 36.5021 205.898 35.4961L206.213 36.1052C204.174 37.1728 202.866 38.7194 202.305 39.3833V39.3764Z" fill="#5286FF"/>
<path d="M207.765 35.4807L207.498 34.8511C210.085 33.7424 212.788 33.3112 215.532 33.5645L215.471 34.2488C212.843 33.9956 210.256 34.4199 207.772 35.4807H207.765Z" fill="#5286FF"/>
<path d="M206.473 40.2173L205.905 39.834C207.308 37.7672 210.086 35.9742 212.659 35.4609L212.789 36.1316C210.381 36.6107 207.78 38.2874 206.466 40.2173H206.473Z" fill="#5286FF"/>
<path d="M161.058 106.072C160.969 106.072 160.88 106.038 160.811 105.97L159.374 104.492C158.642 104.423 157.923 104.286 157.218 104.088L154.98 105.073C154.871 105.121 154.748 105.107 154.652 105.046L150.902 102.562C150.806 102.5 150.744 102.391 150.751 102.274L150.785 99.8379C150.327 99.2699 149.923 98.654 149.574 98.0038L147.651 97.2579C147.541 97.2168 147.459 97.121 147.439 97.0047L146.542 92.5974C146.522 92.481 146.556 92.3647 146.638 92.2826L148.116 90.8454C148.185 90.12 148.322 89.3946 148.513 88.6897L147.528 86.4586C147.48 86.3491 147.493 86.226 147.555 86.1301L150.039 82.3798C150.101 82.284 150.197 82.2224 150.327 82.2293L152.763 82.2635C153.338 81.805 153.954 81.4012 154.597 81.059L155.343 79.136C155.384 79.0265 155.48 78.9444 155.596 78.9238L160.004 78.0273C160.12 78.0068 160.236 78.041 160.318 78.1231L161.749 79.6013C162.474 79.6698 163.2 79.8066 163.904 79.9983L166.135 79.0128C166.245 78.9649 166.368 78.9786 166.464 79.0402L170.214 81.5244C170.31 81.586 170.372 81.6955 170.365 81.8118L170.331 84.255C170.789 84.823 171.193 85.4389 171.535 86.0822L173.458 86.8282C173.568 86.8693 173.65 86.9651 173.67 87.0814L174.567 91.4887C174.587 91.605 174.553 91.7214 174.471 91.8035L172.993 93.2407C172.924 93.9592 172.787 94.6847 172.589 95.3896L173.574 97.6274C173.622 97.7369 173.609 97.8601 173.547 97.9559L171.063 101.699C171.001 101.795 170.899 101.843 170.775 101.85L168.339 101.816C167.771 102.267 167.155 102.671 166.505 103.02L165.759 104.943C165.718 105.053 165.622 105.135 165.506 105.155L161.099 106.052C161.099 106.052 161.051 106.052 161.03 106.052L161.058 106.072ZM157.198 103.383C157.198 103.383 157.259 103.383 157.294 103.397C158.026 103.609 158.785 103.752 159.559 103.821C159.641 103.821 159.716 103.862 159.778 103.924L161.174 105.361L165.212 104.539L165.937 102.671C165.964 102.596 166.026 102.527 166.101 102.493C166.786 102.137 167.436 101.713 168.031 101.227C168.093 101.179 168.161 101.145 168.25 101.152L170.625 101.186L172.904 97.7506L171.946 95.5743C171.911 95.4991 171.911 95.4169 171.932 95.3417C172.151 94.5957 172.288 93.8292 172.356 93.0764C172.356 92.9943 172.397 92.919 172.459 92.8574L173.896 91.4613L173.075 87.4236L171.207 86.6982C171.124 86.6708 171.063 86.6092 171.022 86.5339C170.666 85.8496 170.242 85.2063 169.756 84.6109C169.701 84.5493 169.674 84.4671 169.68 84.385L169.715 82.0103L166.279 79.7314L164.103 80.6895C164.028 80.7237 163.946 80.7237 163.87 80.7032C163.131 80.4842 162.365 80.3473 161.598 80.2789C161.516 80.2789 161.441 80.2378 161.379 80.1762L159.99 78.739L155.952 79.5603L155.227 81.4286C155.199 81.5039 155.138 81.5723 155.062 81.6065C154.378 81.9624 153.735 82.3867 153.133 82.8726C153.071 82.9205 152.989 82.9616 152.907 82.9479L150.532 82.9137L148.253 86.3491L149.211 88.5254C149.252 88.6212 149.252 88.7239 149.204 88.8197C149.013 89.504 148.869 90.2637 148.807 91.0302C148.807 91.1123 148.766 91.1876 148.705 91.2492L147.268 92.6453L148.089 96.683L149.957 97.4084C150.039 97.4426 150.108 97.5042 150.142 97.5864C150.498 98.2639 150.922 98.9072 151.401 99.4957C151.456 99.5573 151.483 99.6395 151.483 99.7216L151.449 102.096L154.885 104.375L157.061 103.417C157.102 103.397 157.15 103.39 157.198 103.39V103.383ZM160.565 101.166C158.833 101.166 157.088 100.673 155.542 99.6531C153.509 98.3049 152.127 96.2519 151.641 93.8634C151.155 91.475 151.627 89.0455 152.975 87.013C155.761 82.8247 161.427 81.6681 165.615 84.4466C169.804 87.2251 170.953 92.8985 168.175 97.0868C166.423 99.7284 163.521 101.166 160.565 101.166ZM153.543 87.3894C152.298 89.2645 151.86 91.5161 152.311 93.7266C152.763 95.9371 154.043 97.8327 155.918 99.0783C159.798 101.645 165.04 100.584 167.607 96.7104C170.173 92.8369 169.112 87.5878 165.239 85.0146C161.365 82.4483 156.116 83.509 153.543 87.3894Z" fill="white"/>
<path d="M291.422 120.926L280.684 119.475L287.788 66.2248L267.065 63.4258L216.799 109.709L214.157 129.508L257.47 135.352L255.308 151.544L276.03 154.343L278.193 138.151L288.931 139.602L291.422 120.926ZM237.07 113.589L263.596 89.411L259.955 116.676L237.07 113.589Z" fill="#5286FF"/>
<path d="M269.728 153.838C269.728 153.838 269.687 153.838 269.667 153.838C269.482 153.804 269.359 153.626 269.393 153.441L285.359 65.891C285.394 65.7062 285.571 65.5899 285.756 65.6173C285.941 65.6515 286.064 65.8294 286.03 66.0142L270.064 153.565C270.036 153.729 269.893 153.845 269.728 153.845V153.838Z" fill="#263238"/>
<path d="M283.893 67.3557C283.879 67.6637 283.626 67.91 283.311 67.8963C282.996 67.8827 282.757 67.6294 282.77 67.3146C282.784 66.9998 283.037 66.7603 283.352 66.774C283.66 66.7877 283.906 67.0409 283.893 67.3557Z" fill="#263238"/>
<path d="M281.615 79.1955C281.601 79.5035 281.348 79.7499 281.033 79.7362C280.718 79.7225 280.479 79.4693 280.493 79.1545C280.506 78.8397 280.759 78.6002 281.074 78.6138C281.382 78.6275 281.629 78.8807 281.615 79.1955Z" fill="#263238"/>
<path d="M279.337 91.0334C279.324 91.3414 279.07 91.5878 278.756 91.5741C278.441 91.5604 278.201 91.3072 278.215 90.9924C278.229 90.6776 278.482 90.438 278.797 90.4517C279.105 90.4654 279.351 90.7186 279.337 91.0334Z" fill="#263238"/>
<path d="M274.846 103.36C274.833 103.668 274.579 103.914 274.265 103.9C273.95 103.887 273.71 103.633 273.724 103.319C273.738 103.004 273.991 102.764 274.306 102.778C274.62 102.792 274.86 103.045 274.846 103.36Z" fill="#263238"/>
<path d="M274.771 114.713C274.758 115.021 274.504 115.267 274.19 115.254C273.875 115.24 273.635 114.987 273.649 114.672C273.663 114.357 273.916 114.118 274.231 114.131C274.546 114.145 274.785 114.398 274.771 114.713Z" fill="#263238"/>
<path d="M272.494 126.553C272.48 126.861 272.227 127.107 271.912 127.094C271.597 127.08 271.358 126.827 271.371 126.512C271.385 126.204 271.638 125.958 271.953 125.971C272.268 125.985 272.507 126.238 272.494 126.553Z" fill="#263238"/>
<path d="M270.213 138.393C270.2 138.701 269.947 138.947 269.632 138.933C269.317 138.92 269.077 138.667 269.091 138.352C269.105 138.037 269.358 137.797 269.673 137.811C269.988 137.825 270.227 138.078 270.213 138.393Z" fill="#263238"/>
<path d="M267.928 150.231C267.914 150.539 267.661 150.785 267.346 150.771C267.031 150.758 266.792 150.504 266.805 150.19C266.819 149.875 267.072 149.635 267.387 149.649C267.702 149.663 267.942 149.916 267.928 150.231Z" fill="#263238"/>
<path d="M274.286 103.679C274.129 103.679 273.985 103.57 273.951 103.406C273.91 103.221 274.026 103.036 274.211 103.002L275.908 102.639C276.093 102.605 276.278 102.714 276.312 102.899C276.353 103.084 276.237 103.269 276.052 103.303L274.355 103.666C274.355 103.666 274.307 103.672 274.279 103.672L274.286 103.679Z" fill="#263238"/>
<path d="M279.958 97.3789C279.958 97.3789 278.425 101.369 277.912 103.785C277.399 106.2 277.365 111.6 277.365 111.6" fill="#263238"/>
<path d="M277.364 111.941C277.173 111.941 277.022 111.784 277.022 111.599C277.022 111.38 277.056 106.138 277.577 103.708C278.09 101.293 279.575 97.4123 279.636 97.2481C279.705 97.0701 279.903 96.988 280.081 97.0496C280.259 97.118 280.348 97.3165 280.28 97.4944C280.266 97.5355 278.754 101.484 278.247 103.852C277.748 106.206 277.707 111.551 277.707 111.599C277.707 111.791 277.549 111.941 277.364 111.941Z" fill="#263238"/>
<path d="M152.237 171.014C153.188 155.684 151.436 127.81 180.255 131.499C211.147 135.454 202.305 171.575 202.305 171.575L152.23 171.014H152.237Z" fill="#263238"/>
<path d="M172.123 161.804C179.07 161.804 184.702 156.172 184.702 149.225C184.702 142.278 179.07 136.646 172.123 136.646C165.176 136.646 159.544 142.278 159.544 149.225C159.544 156.172 165.176 161.804 172.123 161.804Z" fill="white"/>
<path d="M173.78 136.666C167.826 135.647 161.455 140.04 160.825 144.489L184.442 146.658C183.607 141.587 178.509 137.474 173.78 136.666Z" fill="#263238"/>
<path d="M181.751 148.91C181.58 152.195 179.793 154.775 177.747 154.673C175.701 154.57 174.189 151.819 174.36 148.527C174.531 145.242 176.317 142.662 178.363 142.765C180.409 142.867 181.922 145.618 181.751 148.91Z" fill="#263238"/>
<path d="M172.123 162.481C164.814 162.481 158.86 156.534 158.86 149.218C158.86 141.902 164.807 135.955 172.123 135.955C179.439 135.955 185.386 141.902 185.386 149.218C185.386 156.534 179.439 162.481 172.123 162.481ZM172.123 137.331C165.567 137.331 160.229 142.662 160.229 149.225C160.229 155.788 165.56 161.119 172.123 161.119C178.686 161.119 184.017 155.788 184.017 149.225C184.017 142.662 178.686 137.331 172.123 137.331Z" fill="#5286FF"/>
<path opacity="0.3" d="M198.801 170.623C198.801 170.623 198.746 170.623 198.719 170.616C198.534 170.575 198.424 170.391 198.465 170.206C198.486 170.117 200.669 160.837 198.404 151.454C198.363 151.27 198.472 151.085 198.657 151.044C198.835 151.003 199.027 151.112 199.068 151.297C201.374 160.844 199.15 170.274 199.129 170.37C199.088 170.528 198.951 170.63 198.794 170.63L198.801 170.623Z" fill="white"/>
<path opacity="0.3" d="M196.89 146.322C196.76 146.322 196.636 146.247 196.582 146.124C195.699 144.201 194.611 142.442 193.338 140.881C193.221 140.738 193.242 140.519 193.386 140.402C193.529 140.279 193.748 140.307 193.865 140.45C195.172 142.052 196.301 143.865 197.204 145.836C197.286 146.007 197.204 146.213 197.033 146.288C196.985 146.308 196.937 146.322 196.89 146.322Z" fill="white"/>
<path d="M88.0965 242.927C88.0144 242.927 87.9255 242.927 87.8433 242.927C85.9545 242.872 84.4626 241.298 84.5173 239.409C84.5721 237.52 86.1256 236.063 88.0349 236.083C88.0555 236.083 88.076 236.083 88.1034 236.083C90.0812 236.083 94.8375 233.681 104.788 217.995C105.322 217.154 106.198 216.586 107.183 216.442C108.169 216.298 109.175 216.593 109.921 217.25C122.198 227.953 135.208 234.619 135.338 234.687C137.022 235.542 137.692 237.602 136.837 239.286C135.981 240.969 133.921 241.647 132.238 240.792C131.718 240.531 120.351 234.714 108.422 224.949C100.08 237.486 93.8931 242.927 88.0965 242.927Z" fill="#263238"/>
<path d="M109.272 216.633C109.176 216.633 109.08 216.633 108.978 216.613C107.855 216.455 107.075 215.415 107.232 214.293C107.718 210.885 107.116 198.121 102.805 188.198C102.415 187.295 102.716 186.241 103.53 185.68C112.906 179.294 132.875 178.528 133.717 178.501C134.846 178.473 135.798 179.349 135.839 180.478C135.88 181.614 134.99 182.559 133.861 182.6C133.676 182.6 116.218 183.277 107.246 188.212C111.065 198.094 111.934 210.412 111.298 214.868C111.154 215.894 110.271 216.633 109.265 216.633H109.272Z" fill="#263238"/>
<path d="M112.721 213.972C111.352 210.748 105.2 211.118 101.586 213.876C99.6563 215.354 97.0421 219.789 96.7683 221.397C96.4946 223.005 97.6101 224.463 99.5195 224.299C101.881 224.093 105.118 220.665 105.118 220.665C102.962 222.779 105.74 224.271 109.894 221.212C112.194 219.515 114.247 217.578 112.721 213.972Z" fill="#5286FF"/>
<path d="M230.43 171.916C230.43 171.916 230.369 171.916 230.334 171.902C230.15 171.848 230.047 171.663 230.102 171.478C231.012 168.303 232.011 166.366 233.318 165.285C233.12 164.6 233.14 163.82 233.421 163.054C233.695 162.308 234.228 161.569 235.036 161C234.639 160.569 234.495 160.008 234.632 159.372C234.789 158.66 235.303 157.887 236.097 157.209C235.789 156.853 235.713 156.463 235.707 156.176C235.686 154.136 239.477 151.023 243.755 150.441C243.939 150.407 244.117 150.543 244.138 150.735C244.165 150.92 244.035 151.098 243.844 151.118C239.778 151.673 236.37 154.615 236.384 156.169C236.384 156.422 236.48 156.621 236.63 156.785C238.17 155.71 240.442 155.019 242.981 155.512C245.082 155.916 245.938 156.361 245.835 156.997C245.65 158.195 241.175 158.448 238.177 158.085C237.5 158.003 237 157.846 236.637 157.64C235.891 158.249 235.412 158.934 235.289 159.509C235.18 160.022 235.344 160.378 235.631 160.631C236.904 159.974 238.69 159.7 241.051 160.227C244.158 160.912 244.275 161.288 244.343 161.514C244.391 161.678 244.35 161.842 244.234 161.965C243.577 162.657 238.82 162.328 236.432 161.746C236.124 161.671 235.843 161.569 235.611 161.438C234.817 161.938 234.31 162.609 234.057 163.293C233.859 163.841 233.811 164.381 233.9 164.867C234.023 164.792 234.146 164.723 234.276 164.669C235.693 163.998 237.404 164.108 239.512 165.011C240.908 165.613 241.585 166.14 241.633 166.681C241.647 166.838 241.619 167.146 241.243 167.392C240.203 168.084 236.541 167.981 234.639 166.968C234.187 166.729 233.838 166.373 233.585 165.948C232.47 166.968 231.566 168.802 230.738 171.67C230.697 171.82 230.56 171.916 230.41 171.916H230.43ZM234.146 165.531C234.338 165.88 234.618 166.167 234.981 166.366C236.528 167.187 239.566 167.379 240.702 166.913C240.935 166.818 240.969 166.742 240.969 166.742C240.969 166.742 240.935 166.359 239.258 165.64C237.342 164.819 235.809 164.703 234.584 165.285C234.434 165.353 234.29 165.435 234.146 165.531ZM236.425 161.035C236.487 161.055 236.541 161.069 236.603 161.083C239.019 161.671 242.283 161.774 243.399 161.589C243.05 161.445 242.345 161.206 240.908 160.891C239.012 160.474 237.527 160.604 236.418 161.028L236.425 161.035ZM237.287 157.189C237.595 157.305 237.944 157.373 238.273 157.408C241.681 157.811 244.692 157.332 245.144 156.908C245.028 156.805 244.569 156.511 242.865 156.183C240.62 155.758 238.656 156.319 237.287 157.182V157.189Z" fill="#263238"/>
<path d="M141.34 241.784C141.791 241.641 141.641 241.203 141.135 241.203H131.868C114.225 239.334 101.9 241.839 109.668 242.428C117.435 243.016 109.12 242.893 103.447 245.042C97.7734 247.191 145.638 247.731 149.997 245.042C154.014 242.564 135.092 243.789 141.34 241.784Z" fill="#263238"/>
<path d="M207.684 244.514L127.066 241.838L123.719 163.67L218.921 165.798L207.684 244.514Z" fill="#5286FF"/>
<path d="M152.236 243.016C152.058 243.016 151.907 242.879 151.893 242.701L145.433 164.191C145.419 163.999 145.556 163.835 145.748 163.821C145.94 163.808 146.104 163.944 146.117 164.136L152.578 242.646C152.591 242.838 152.455 243.002 152.263 243.016C152.256 243.016 152.242 243.016 152.236 243.016Z" fill="#263238"/>
<path d="M207.682 244.512L229.349 241.214L236.172 168.527L218.92 165.797L207.682 244.512Z" fill="#5286FF"/>
<path opacity="0.2" d="M207.682 244.512L229.349 241.214L236.172 168.527L218.92 165.797L207.682 244.512Z" fill="black"/>
<path d="M134.758 227.653L132.774 181.212C132.568 176.367 136.496 172.35 141.349 172.459L201.614 173.807C206.644 173.917 210.449 178.406 209.737 183.388L203.058 230.192C202.455 234.435 198.753 237.542 194.469 237.398L142.875 235.687C138.488 235.544 134.95 232.04 134.765 227.653H134.758Z" fill="#263238"/>
<rect x="140.248" y="176.501" width="60.8215" height="53.7172" rx="6.73632" transform="rotate(1.83041 140.248 176.501)" fill="white" stroke="#999999" stroke-width="0.214602"/>
<path d="M141.158 180.276C141.169 179.802 141.561 179.427 142.035 179.437L152.9 179.682C153.374 179.692 153.749 180.085 153.739 180.559L153.523 190.132C153.513 190.606 153.12 190.982 152.646 190.971L141.781 190.726C141.307 190.716 140.932 190.323 140.942 189.849L141.158 180.276Z" fill="#FAFAFA"/>
<path d="M146.348 182.601L148.187 182.643C148.347 182.646 148.425 182.724 148.422 182.876C148.418 183.029 148.337 183.103 148.176 183.099L146.518 183.062L146.401 184.255C146.595 184.204 146.836 184.181 147.124 184.187C147.525 184.196 147.851 184.306 148.102 184.516C148.354 184.726 148.476 185.029 148.467 185.426C148.458 185.822 148.3 186.143 147.994 186.389C147.688 186.634 147.321 186.752 146.892 186.743C146.468 186.733 146.143 186.674 145.917 186.564C145.691 186.451 145.58 186.298 145.584 186.106C145.588 185.962 145.674 185.864 145.843 185.811C145.892 185.969 146.013 186.088 146.208 186.168C146.407 186.245 146.646 186.286 146.926 186.293C147.211 186.299 147.459 186.226 147.671 186.075C147.882 185.923 147.991 185.714 147.997 185.445C148.003 185.173 147.916 184.971 147.735 184.838C147.557 184.706 147.344 184.637 147.096 184.632C146.848 184.626 146.58 184.662 146.294 184.74C146.258 184.751 146.212 184.756 146.156 184.755C146.104 184.753 146.052 184.728 146.001 184.679C145.95 184.626 145.926 184.559 145.927 184.479L146.097 182.818C146.107 182.738 146.128 182.682 146.161 182.651C146.198 182.616 146.26 182.599 146.348 182.601Z" fill="#545454"/>
<path d="M155.676 180.589C155.687 180.115 156.08 179.739 156.554 179.75L169.276 180.036C169.75 180.047 170.126 180.44 170.115 180.914L169.9 190.486C169.889 190.96 169.496 191.336 169.022 191.325L156.3 191.039C155.826 191.028 155.45 190.635 155.461 190.161L155.676 180.589Z" fill="#FAFAFA"/>
<path d="M161.183 183.408C161.516 183.055 161.93 182.884 162.427 182.895C162.923 182.906 163.328 183.095 163.64 183.463C163.952 183.827 164.101 184.343 164.086 185.012C164.071 185.677 163.897 186.19 163.565 186.551C163.236 186.912 162.825 187.087 162.333 187.076C161.84 187.065 161.434 186.871 161.114 186.496C160.797 186.12 160.647 185.6 160.662 184.935C160.677 184.27 160.851 183.761 161.183 183.408ZM163.521 185.017C163.532 184.505 163.431 184.104 163.217 183.814C163.008 183.521 162.739 183.371 162.41 183.363C162.082 183.356 161.806 183.494 161.583 183.777C161.365 184.057 161.25 184.453 161.238 184.966C161.227 185.474 161.318 185.875 161.512 186.168C161.705 186.457 161.981 186.605 162.337 186.613C162.697 186.621 162.981 186.486 163.188 186.206C163.398 185.922 163.509 185.526 163.521 185.017Z" fill="#545454"/>
<path d="M171.117 180.477C171.128 180.003 171.521 179.628 171.995 179.638L182.859 179.883C183.333 179.894 183.709 180.287 183.698 180.76L183.483 190.333C183.472 190.807 183.079 191.183 182.605 191.172L171.741 190.928C171.267 190.917 170.891 190.524 170.902 190.05L171.117 180.477Z" fill="#FAFAFA"/>
<path d="M178.11 182.825L178.122 182.825C178.271 182.829 178.343 182.912 178.339 183.077L178.286 185.437L178.598 185.444C178.759 185.448 178.837 185.526 178.834 185.678C178.83 185.826 178.749 185.899 178.588 185.895L178.276 185.888L178.258 186.705C178.256 186.785 178.234 186.843 178.194 186.878C178.157 186.909 178.092 186.924 178 186.922L177.964 186.921C177.876 186.919 177.814 186.901 177.779 186.869C177.748 186.832 177.733 186.773 177.735 186.693L177.753 185.876L175.807 185.832C175.663 185.829 175.592 185.767 175.595 185.647C175.597 185.567 175.628 185.488 175.69 185.409C176.18 184.823 176.82 184.088 177.609 183.204C177.626 183.177 177.655 183.141 177.696 183.098L177.8 182.986C177.903 182.876 178.006 182.823 178.11 182.825ZM177.763 185.426L177.804 183.611C177.673 183.761 177.426 184.044 177.064 184.46C176.702 184.873 176.429 185.183 176.244 185.391L177.763 185.426Z" fill="#545454"/>
<path d="M185.42 180.815C185.43 180.341 185.823 179.966 186.297 179.976L196.879 180.214C197.353 180.225 197.728 180.618 197.717 181.092L197.502 190.665C197.491 191.139 197.098 191.514 196.624 191.504L186.043 191.266C185.569 191.255 185.194 190.862 185.204 190.388L185.42 180.815Z" fill="#FAFAFA"/>
<path d="M191.186 183.154L191.805 183.167C191.973 183.171 192.055 183.245 192.052 183.389L191.97 187.024C191.967 187.176 191.881 187.25 191.713 187.246L191.671 187.245C191.503 187.242 191.42 187.164 191.424 187.012L191.5 183.611L191.176 183.604C191.012 183.6 190.931 183.524 190.934 183.376C190.938 183.224 191.022 183.15 191.186 183.154Z" fill="#545454"/>
<path d="M141.203 192.858C141.214 192.384 141.607 192.009 142.081 192.019L152.945 192.264C153.419 192.274 153.795 192.667 153.784 193.141L153.569 202.714C153.558 203.188 153.165 203.564 152.691 203.553L141.827 203.308C141.353 203.298 140.977 202.905 140.988 202.431L141.203 192.858Z" fill="#FAFAFA"/>
<path d="M148.196 195.206L148.208 195.206C148.357 195.209 148.429 195.293 148.425 195.457L148.372 197.818L148.684 197.825C148.845 197.829 148.923 197.907 148.92 198.059C148.916 198.207 148.834 198.279 148.674 198.276L148.362 198.269L148.343 199.086C148.342 199.166 148.32 199.224 148.279 199.259C148.243 199.29 148.178 199.305 148.086 199.302L148.05 199.302C147.962 199.3 147.9 199.282 147.865 199.249C147.834 199.213 147.819 199.154 147.821 199.074L147.839 198.257L145.893 198.213C145.749 198.21 145.678 198.148 145.681 198.028C145.682 197.948 145.714 197.869 145.776 197.79C146.266 197.204 146.906 196.469 147.695 195.585C147.712 195.558 147.741 195.522 147.782 195.479L147.886 195.367C147.989 195.257 148.092 195.204 148.196 195.206ZM147.849 197.807L147.89 195.992C147.759 196.142 147.512 196.425 147.15 196.841C146.788 197.254 146.515 197.564 146.33 197.772L147.849 197.807Z" fill="#545454"/>
<path d="M155.922 193.456C155.933 192.982 156.326 192.606 156.8 192.617L168.523 192.881C168.996 192.891 169.372 193.284 169.361 193.758L169.146 203.331C169.135 203.805 168.742 204.181 168.268 204.17L156.546 203.906C156.072 203.895 155.696 203.503 155.707 203.029L155.922 193.456Z" fill="#FAFAFA"/>
<path d="M161.013 196.849C161.02 196.532 161.158 196.275 161.427 196.077C161.7 195.874 162.031 195.778 162.42 195.786C162.812 195.795 163.134 195.907 163.386 196.121C163.637 196.331 163.76 196.594 163.753 196.91C163.743 197.323 163.509 197.606 163.048 197.76C163.279 197.845 163.474 197.974 163.635 198.146C163.795 198.318 163.872 198.536 163.866 198.8C163.859 199.149 163.716 199.43 163.439 199.644C163.161 199.854 162.791 199.954 162.326 199.944C161.865 199.933 161.497 199.817 161.222 199.594C160.951 199.368 160.819 199.08 160.827 198.732C160.833 198.467 160.918 198.253 161.082 198.088C161.246 197.92 161.443 197.8 161.673 197.729C161.224 197.551 161.004 197.257 161.013 196.849ZM163.217 196.928C163.222 196.724 163.15 196.556 163 196.425C162.851 196.289 162.656 196.219 162.416 196.213C162.18 196.208 161.98 196.269 161.817 196.398C161.654 196.523 161.57 196.689 161.565 196.897C161.561 197.101 161.627 197.265 161.764 197.388C161.906 197.512 162.111 197.577 162.379 197.583C162.647 197.589 162.853 197.533 162.996 197.416C163.139 197.295 163.213 197.133 163.217 196.928ZM163.32 198.776C163.325 198.54 163.239 198.349 163.062 198.205C162.889 198.057 162.659 197.98 162.37 197.973C162.086 197.967 161.85 198.034 161.663 198.174C161.475 198.31 161.379 198.496 161.374 198.732C161.368 198.964 161.454 199.153 161.631 199.297C161.812 199.441 162.047 199.517 162.336 199.523C162.624 199.529 162.858 199.465 163.037 199.328C163.22 199.192 163.315 199.008 163.32 198.776Z" fill="#545454"/>
<path d="M170.863 193.333C170.874 192.859 171.267 192.483 171.741 192.494L182.606 192.738C183.079 192.749 183.455 193.142 183.444 193.616L183.229 203.189C183.218 203.663 182.825 204.038 182.351 204.028L171.487 203.783C171.013 203.772 170.637 203.38 170.648 202.906L170.863 193.333Z" fill="#FAFAFA"/>
<path d="M175.585 195.647L177.976 195.701C178.14 195.705 178.221 195.785 178.217 195.941C178.216 196.009 178.14 196.18 177.989 196.453C177.37 197.609 176.816 198.648 176.327 199.571C176.264 199.686 176.16 199.741 176.016 199.738L175.926 199.736C175.798 199.733 175.735 199.686 175.737 199.594C175.739 199.521 175.764 199.446 175.814 199.367C175.914 199.209 176.501 198.138 177.575 196.155L175.575 196.11C175.415 196.106 175.336 196.028 175.34 195.876C175.343 195.72 175.425 195.644 175.585 195.647Z" fill="#545454"/>
<path d="M185.259 193.302C185.27 192.828 185.663 192.452 186.137 192.463L197.001 192.707C197.475 192.718 197.851 193.111 197.84 193.585L197.625 203.157C197.614 203.631 197.221 204.007 196.747 203.996L185.883 203.752C185.409 203.741 185.033 203.348 185.044 202.874L185.259 193.302Z" fill="#FAFAFA"/>
<path d="M189.866 196.479C189.871 196.235 189.99 196.023 190.222 195.844C190.455 195.665 190.771 195.58 191.172 195.589C191.572 195.598 191.88 195.711 192.096 195.928C192.311 196.141 192.416 196.402 192.409 196.711C192.402 197.019 192.293 197.303 192.083 197.563C191.873 197.818 191.406 198.283 190.681 198.956C190.542 199.085 190.436 199.184 190.362 199.255L192.194 199.296C192.362 199.3 192.445 199.378 192.441 199.53C192.438 199.678 192.352 199.751 192.184 199.747L189.955 199.697C189.791 199.693 189.711 199.605 189.715 199.433C189.718 199.289 189.785 199.17 189.915 199.077C190.725 198.342 191.26 197.831 191.518 197.544C191.777 197.253 191.909 197 191.914 196.784C191.919 196.563 191.847 196.387 191.698 196.256C191.553 196.12 191.348 196.05 191.083 196.044C190.823 196.038 190.617 196.113 190.465 196.27C190.313 196.427 190.224 196.595 190.195 196.775C189.971 196.77 189.861 196.671 189.866 196.479Z" fill="#545454"/>
<path d="M141.296 205.727C141.304 205.253 141.695 204.875 142.169 204.883L153.034 205.059C153.508 205.067 153.886 205.457 153.879 205.931L153.724 215.505C153.716 215.979 153.325 216.358 152.851 216.35L141.985 216.174C141.511 216.166 141.133 215.775 141.141 215.301L141.296 205.727Z" fill="#FAFAFA"/>
<path d="M146.285 208.725C146.417 208.495 146.605 208.313 146.847 208.181C147.09 208.045 147.377 207.979 147.71 207.985C148.042 207.99 148.305 208.065 148.499 208.208C148.697 208.347 148.795 208.485 148.793 208.621C148.791 208.758 148.703 208.846 148.53 208.887C148.394 208.665 148.228 208.524 148.032 208.465C147.929 208.435 147.789 208.419 147.613 208.416C147.436 208.413 147.261 208.462 147.087 208.564C146.917 208.665 146.783 208.799 146.684 208.966C146.487 209.299 146.384 209.666 146.378 210.067C146.497 209.904 146.665 209.771 146.883 209.666C147.105 209.562 147.338 209.511 147.583 209.515C148.051 209.523 148.392 209.644 148.604 209.88C148.821 210.116 148.926 210.424 148.92 210.805C148.914 211.181 148.782 211.504 148.526 211.772C148.273 212.04 147.894 212.17 147.39 212.162C146.885 212.154 146.503 211.982 146.244 211.645C145.989 211.308 145.866 210.848 145.876 210.263C145.885 209.686 146.022 209.173 146.285 208.725ZM147.45 209.94C147.161 209.935 146.918 210.009 146.719 210.162C146.524 210.315 146.425 210.5 146.421 210.716C146.418 210.929 146.491 211.14 146.64 211.351C146.714 211.456 146.819 211.544 146.954 211.614C147.093 211.681 147.249 211.715 147.421 211.718C147.765 211.724 148.017 211.642 148.176 211.472C148.335 211.298 148.417 211.075 148.421 210.803C148.43 210.238 148.107 209.95 147.45 209.94Z" fill="#545454"/>
<path d="M170.917 205.763C170.924 205.289 171.315 204.911 171.789 204.918L182.372 205.09C182.846 205.098 183.224 205.488 183.216 205.962L183.061 215.536C183.053 216.01 182.663 216.388 182.189 216.38L171.606 216.209C171.132 216.201 170.754 215.811 170.761 215.337L170.917 205.763Z" fill="#FAFAFA"/>
<path d="M176.698 208.063L177.316 208.074C177.485 208.076 177.568 208.15 177.565 208.294L177.506 211.929C177.504 212.081 177.419 212.156 177.25 212.153L177.208 212.152C177.04 212.15 176.957 212.072 176.96 211.92L177.015 208.519L176.69 208.514C176.526 208.511 176.445 208.436 176.448 208.288C176.45 208.136 176.533 208.061 176.698 208.063Z" fill="#545454"/>
<path d="M185.199 206.284C185.207 205.81 185.597 205.432 186.071 205.44L197.043 205.618C197.517 205.625 197.895 206.016 197.888 206.49L197.735 215.907C197.727 216.381 197.337 216.76 196.863 216.752L185.891 216.574C185.417 216.566 185.039 216.176 185.046 215.702L185.199 206.284Z" fill="#FAFAFA"/>
<path d="M189.918 209.224C189.921 209.048 190.028 208.875 190.239 208.706C190.45 208.534 190.774 208.451 191.21 208.458C191.647 208.465 191.968 208.572 192.172 208.78C192.377 208.988 192.478 209.216 192.474 209.464C192.47 209.712 192.4 209.921 192.265 210.092C192.135 210.258 191.968 210.367 191.767 210.42C192.015 210.476 192.225 210.588 192.399 210.755C192.572 210.922 192.657 211.142 192.653 211.414C192.647 211.782 192.484 212.08 192.163 212.307C191.847 212.535 191.475 212.645 191.046 212.638C190.622 212.631 190.288 212.569 190.046 212.453C189.807 212.337 189.689 212.197 189.692 212.033C189.695 211.869 189.786 211.762 189.967 211.713C190.079 212.019 190.423 212.177 190.999 212.186C191.3 212.191 191.565 212.127 191.796 211.995C192.026 211.863 192.144 211.678 192.147 211.442C192.151 211.201 192.048 211.022 191.838 210.902C191.627 210.778 191.374 210.714 191.077 210.709L190.825 210.705C190.645 210.702 190.556 210.629 190.558 210.485C190.561 210.328 190.652 210.252 190.832 210.255L191.085 210.259C191.333 210.263 191.54 210.204 191.707 210.082C191.877 209.957 191.964 209.798 191.967 209.606C191.97 209.41 191.903 209.246 191.764 209.116C191.63 208.981 191.433 208.912 191.173 208.908C190.916 208.904 190.709 208.955 190.551 209.06C190.397 209.166 190.291 209.31 190.232 209.494C190.02 209.49 189.915 209.4 189.918 209.224Z" fill="#545454"/>
<path d="M141.133 218.778C141.141 218.304 141.531 217.926 142.006 217.934L152.871 218.11C153.345 218.118 153.723 218.508 153.716 218.982L153.56 228.556C153.553 229.03 153.162 229.408 152.688 229.401L141.822 229.224C141.348 229.217 140.97 228.826 140.978 228.352L141.133 218.778Z" fill="#FAFAFA"/>
<path d="M145.798 221.794C145.801 221.618 145.908 221.446 146.119 221.277C146.33 221.104 146.654 221.021 147.09 221.028C147.527 221.035 147.848 221.143 148.053 221.35C148.258 221.558 148.358 221.786 148.354 222.034C148.35 222.283 148.281 222.492 148.146 222.662C148.015 222.828 147.849 222.937 147.647 222.99C147.895 223.046 148.105 223.158 148.279 223.325C148.453 223.492 148.537 223.712 148.533 223.984C148.527 224.353 148.364 224.651 148.043 224.878C147.727 225.105 147.355 225.215 146.926 225.208C146.502 225.201 146.168 225.14 145.926 225.024C145.687 224.908 145.569 224.768 145.572 224.603C145.575 224.439 145.667 224.332 145.848 224.283C145.959 224.59 146.303 224.747 146.88 224.757C147.18 224.762 147.445 224.698 147.676 224.565C147.906 224.433 148.024 224.248 148.027 224.012C148.031 223.772 147.928 223.592 147.718 223.472C147.507 223.349 147.254 223.284 146.958 223.28L146.705 223.276C146.525 223.273 146.436 223.199 146.438 223.055C146.441 222.899 146.532 222.822 146.713 222.825L146.965 222.829C147.213 222.833 147.421 222.774 147.587 222.653C147.757 222.527 147.844 222.368 147.847 222.176C147.85 221.98 147.783 221.817 147.645 221.686C147.51 221.552 147.313 221.482 147.053 221.478C146.797 221.474 146.589 221.525 146.431 221.63C146.278 221.736 146.171 221.881 146.112 222.064C145.9 222.061 145.795 221.971 145.798 221.794Z" fill="#545454"/>
<path d="M156.299 219.321C156.307 218.847 156.697 218.469 157.171 218.477L168.037 218.653C168.511 218.661 168.889 219.051 168.881 219.525L168.726 229.099C168.719 229.573 168.328 229.951 167.854 229.944L156.988 229.767C156.514 229.76 156.136 229.369 156.144 228.895L156.299 219.321Z" fill="#FAFAFA"/>
<path d="M160.893 222.949C160.899 222.577 161.041 222.253 161.318 221.977C161.599 221.701 161.973 221.567 162.442 221.574C162.915 221.582 163.284 221.756 163.551 222.097C163.818 222.438 163.947 222.897 163.938 223.473C163.928 224.05 163.792 224.563 163.528 225.011C163.396 225.241 163.209 225.425 162.966 225.561C162.724 225.693 162.436 225.757 162.104 225.751C161.771 225.746 161.506 225.674 161.308 225.534C161.114 225.391 161.018 225.251 161.02 225.115C161.023 224.979 161.11 224.89 161.283 224.849C161.42 225.071 161.586 225.212 161.781 225.271C161.885 225.301 162.025 225.317 162.201 225.32C162.377 225.323 162.55 225.274 162.72 225.172C162.894 225.071 163.031 224.937 163.129 224.77C163.327 224.437 163.429 224.07 163.436 223.67C163.317 223.832 163.146 223.965 162.924 224.07C162.706 224.175 162.475 224.225 162.231 224.221C161.762 224.213 161.42 224.092 161.203 223.856C160.991 223.62 160.887 223.318 160.893 222.949ZM162.393 222.018C162.084 222.013 161.841 222.099 161.661 222.277C161.486 222.454 161.397 222.673 161.392 222.933C161.383 223.498 161.707 223.786 162.364 223.796C162.652 223.801 162.894 223.727 163.089 223.574C163.288 223.421 163.389 223.236 163.392 223.02C163.396 222.808 163.323 222.596 163.174 222.385C163.1 222.28 162.993 222.194 162.854 222.128C162.719 222.057 162.565 222.021 162.393 222.018Z" fill="#545454"/>
<path d="M170.868 218.829C170.876 218.355 171.267 217.977 171.741 217.985L182.606 218.161C183.08 218.169 183.459 218.559 183.451 219.033L183.296 228.607C183.288 229.081 182.897 229.459 182.423 229.451L171.558 229.275C171.083 229.267 170.705 228.877 170.713 228.403L170.868 218.829Z" fill="#FAFAFA"/>
<path d="M176.073 221.121L177.912 221.151C178.072 221.153 178.151 221.231 178.148 221.383C178.146 221.535 178.065 221.61 177.904 221.607L176.246 221.58L176.137 222.774C176.33 222.722 176.571 222.697 176.859 222.702C177.259 222.709 177.586 222.816 177.839 223.024C178.092 223.233 178.216 223.535 178.209 223.932C178.203 224.328 178.047 224.65 177.743 224.898C177.438 225.145 177.072 225.266 176.643 225.259C176.219 225.252 175.893 225.194 175.666 225.087C175.44 224.975 175.328 224.823 175.331 224.63C175.334 224.486 175.419 224.387 175.588 224.334C175.638 224.491 175.76 224.609 175.955 224.689C176.154 224.764 176.394 224.804 176.675 224.808C176.959 224.813 177.207 224.739 177.417 224.586C177.628 224.433 177.736 224.223 177.74 223.954C177.744 223.682 177.656 223.48 177.473 223.349C177.295 223.218 177.082 223.15 176.834 223.146C176.585 223.142 176.318 223.18 176.033 223.26C175.996 223.271 175.95 223.276 175.894 223.275C175.842 223.275 175.79 223.25 175.739 223.201C175.688 223.148 175.663 223.081 175.664 223.001L175.823 221.339C175.833 221.259 175.854 221.203 175.886 221.172C175.923 221.136 175.985 221.119 176.073 221.121Z" fill="#545454"/>
<path d="M184.989 218.942C184.996 218.468 185.387 218.09 185.861 218.098L197.726 218.29C198.2 218.298 198.578 218.689 198.571 219.163L198.416 228.737C198.408 229.211 198.017 229.589 197.543 229.581L185.678 229.388C185.204 229.381 184.826 228.99 184.833 228.516L184.989 218.942Z" fill="#FAFAFA"/>
<path d="M190.083 221.719C190.414 221.364 190.827 221.19 191.324 221.198C191.82 221.206 192.226 221.393 192.541 221.759C192.855 222.121 193.007 222.636 192.996 223.305C192.986 223.97 192.815 224.484 192.485 224.847C192.158 225.21 191.749 225.388 191.256 225.38C190.763 225.372 190.356 225.181 190.033 224.807C189.715 224.433 189.561 223.914 189.572 223.249C189.583 222.584 189.753 222.074 190.083 221.719ZM192.431 223.314C192.44 222.801 192.336 222.401 192.12 222.113C191.909 221.821 191.639 221.672 191.31 221.667C190.982 221.662 190.707 221.801 190.486 222.086C190.269 222.367 190.157 222.764 190.148 223.277C190.14 223.785 190.234 224.185 190.429 224.477C190.625 224.765 190.901 224.911 191.257 224.917C191.618 224.923 191.901 224.785 192.106 224.504C192.314 224.219 192.423 223.822 192.431 223.314Z" fill="#545454"/>
<rect x="156.173" y="205.316" width="12.5181" height="10.4948" rx="0.858407" transform="rotate(1.53936 156.173 205.316)" fill="#FAFAFA"/>
<path d="M160.915 208.866L159.583 208.315L158.633 209.205L159.986 210.159L160.915 208.866Z" fill="url(#paint0_linear_20254_63872)"/>
<path d="M159.986 210.159L158.633 209.205L162.115 213.424L162.115 213.425L161.908 213.107L159.986 210.159Z" fill="url(#paint1_linear_20254_63872)"/>
<path fill-rule="evenodd" clip-rule="evenodd" d="M164.946 208.509L164.607 208.622L164.212 208.752L163.523 208.911L160.915 208.866L159.583 208.315L161.052 207.888L163.574 207.98L164.946 208.509Z" fill="url(#paint2_linear_20254_63872)"/>
<path d="M163.579 208.963L164.212 208.752L163.523 208.911L160.915 208.866L163.579 208.963Z" fill="#0057FF"/>
<path d="M160.915 208.866L159.986 210.159L160.069 210.162L160.915 208.866Z" fill="#0057FF"/>
<path d="M159.986 210.159L161.908 213.107L160.079 210.182L160.069 210.162L159.986 210.159Z" fill="#0057FF"/>
<path fill-rule="evenodd" clip-rule="evenodd" d="M165.893 209.468L162.115 213.425L162.13 213.405L164.577 210.388L165.893 209.468Z" fill="url(#paint3_linear_20254_63872)"/>
<path d="M164.545 210.324L164.531 210.343L162.316 213.161L162.13 213.405L164.577 210.388L165.893 209.468L164.559 210.315L164.545 210.324Z" fill="#0057FF"/>
<path fill-rule="evenodd" clip-rule="evenodd" d="M164.531 210.343L160.079 210.182L161.908 213.107L162.115 213.425L162.316 213.161L164.531 210.343Z" fill="url(#paint4_linear_20254_63872)"/>
<path d="M164.545 210.324L164.529 210.323L160.069 210.162L160.079 210.182L164.531 210.343L164.545 210.324Z" fill="#0057FF"/>
<path fill-rule="evenodd" clip-rule="evenodd" d="M164.946 208.509L165.893 209.468L164.559 210.315L163.979 209.527L163.579 208.963L164.213 208.752L164.607 208.622L164.946 208.509Z" fill="url(#paint5_linear_20254_63872)"/>
<path d="M163.979 209.527L164.545 210.324L164.559 210.315L163.979 209.527Z" fill="#0057FF"/>
<path fill-rule="evenodd" clip-rule="evenodd" d="M160.069 210.162L160.915 208.866L163.579 208.963L163.979 209.527L164.529 210.323L160.069 210.162Z" fill="url(#paint6_linear_20254_63872)"/>
<path d="M164.545 210.324L163.979 209.527L164.529 210.323L164.545 210.324Z" fill="#0057FF"/>
<g opacity="0.01">
<path d="M160.858 208.843C160.552 209.332 159.769 209.655 159.426 209.764L159.986 210.159L160.915 208.867L160.858 208.843Z" fill="url(#paint7_linear_20254_63872)"/>
<path d="M163.579 208.963L163.412 208.957L162.915 208.939L162.82 208.935L162.736 208.932L160.915 208.867L160.069 210.162L160.102 210.163C160.686 209.349 162.664 209.024 163.579 208.963Z" fill="url(#paint8_linear_20254_63872)"/>
<path d="M165.028 210.017C164.52 209.967 163.851 209.293 163.579 208.963L164.56 210.314L165.028 210.017Z" fill="url(#paint9_linear_20254_63872)"/>
<path d="M161.765 212.88L162.115 213.425L164.23 210.727C163.452 211.694 162.211 213.057 161.765 212.88Z" fill="url(#paint10_linear_20254_63872)"/>
<path fill-rule="evenodd" clip-rule="evenodd" d="M164.531 210.343C164.443 210.459 164.341 210.589 164.23 210.727L164.531 210.343Z" fill="#C4C4C4"/>
<path d="M163.412 208.957L162.673 207.947L162.276 207.933L162.915 208.939L163.412 208.957Z" fill="url(#paint11_linear_20254_63872)"/>
<path d="M162.82 208.935L162.167 207.929L162.102 207.926L162.736 208.932L162.82 208.935Z" fill="url(#paint12_linear_20254_63872)"/>
</g>
<path opacity="0.01" d="M163.663 209.129C163.663 209.129 163.647 209.058 163.628 209.045C163.608 209.033 163.57 209.037 163.57 209.037C163.57 209.037 163.606 209.024 163.618 209.004C163.631 208.985 163.631 208.962 163.631 208.962C163.631 208.962 163.639 208.983 163.658 208.995C163.678 209.008 163.716 209.003 163.716 209.003C163.716 209.003 163.68 209.016 163.667 209.036C163.655 209.056 163.663 209.129 163.663 209.129Z" fill="url(#paint13_radial_20254_63872)"/>
<path opacity="0.01" d="M161.982 212.963C161.982 212.963 161.992 213.009 162.005 213.017C162.017 213.026 162.043 213.023 162.043 213.023C162.043 213.023 162.019 213.031 162.011 213.044C162.003 213.057 162.003 213.071 162.003 213.071C162.003 213.071 161.998 213.058 161.985 213.05C161.973 213.042 161.947 213.044 161.947 213.044C161.947 213.044 161.971 213.036 161.979 213.023C161.987 213.011 161.982 212.963 161.982 212.963Z" fill="url(#paint14_radial_20254_63872)"/>
<path d="M86.0584 246.17L81.7743 244.131L77.9556 225.537L80.0292 223.258L86.0584 246.17Z" fill="#5286FF"/>
<path d="M86.0593 246.17L91.7395 242.851L86.8736 227.535L80.03 223.258L86.0593 246.17Z" fill="#5286FF"/>
<path opacity="0.2" d="M86.0593 246.17L91.7395 242.851L86.8736 227.535L80.03 223.258L86.0593 246.17Z" fill="black"/>
<path d="M179.269 249.552C179.104 249.552 178.947 249.552 178.796 249.552C176.908 249.497 175.416 247.923 175.47 246.034C175.525 244.145 177.086 242.66 178.988 242.708C184.258 242.879 195.42 239.642 201.791 233.455C202.188 233.072 202.667 232.792 203.194 232.634C214 229.39 218.017 235.94 218.188 236.22L212.296 239.704C212.296 239.704 212.316 239.751 212.378 239.827C212.31 239.738 210.784 237.746 205.911 238.978C197.911 246.28 185.633 249.552 179.282 249.552H179.269Z" fill="#263238"/>
<path d="M178.885 254.103L166.423 253.316L165.445 230.342L182.191 230.965L178.885 254.103Z" fill="#5286FF"/>
<path d="M178.886 254.103L181.801 251.201L183.608 236.878L182.191 230.965L178.886 254.103Z" fill="#5286FF"/>
<path opacity="0.2" d="M178.886 254.103L181.801 251.201L183.608 236.878L182.191 230.965L178.886 254.103Z" fill="black"/>
<path d="M251.1 245.398C250.669 245.398 250.231 245.261 249.861 244.98C242.751 239.574 233.128 229.972 229.44 220.713C229.385 220.576 229.344 220.439 229.323 220.295C227.524 209.599 225.806 187.076 225.731 186.125C225.642 184.996 226.49 184.011 227.619 183.922C228.749 183.839 229.734 184.681 229.823 185.81C229.844 186.043 231.575 208.784 233.334 219.392C237.016 228.398 246.994 237.644 252.345 241.709C253.249 242.393 253.427 243.68 252.735 244.583C252.332 245.117 251.716 245.391 251.1 245.391V245.398Z" fill="#263238"/>
<path d="M260.591 246.437C259.003 246.437 257.203 245.718 255.246 244.301C254.329 243.638 254.124 242.351 254.787 241.434C255.451 240.517 256.738 240.312 257.655 240.975C259.352 242.2 260.276 242.337 260.598 242.337C261.734 242.337 262.651 243.254 262.651 244.39C262.651 245.526 261.734 246.443 260.598 246.443L260.591 246.437Z" fill="#263238"/>
<path d="M255.813 244.242C258.01 237.713 267.016 239.006 270.117 239.971C273.217 240.943 276.009 242.161 277.692 243.256C279.369 244.351 279.397 246.192 277.159 247.239C274.394 248.533 267.468 247.383 267.468 247.383C271.054 248.95 267.461 251.469 261.165 248.998C259.119 248.19 255.033 246.63 255.807 244.235L255.813 244.242Z" fill="#5286FF"/>
<path d="M233.955 188.938C233.14 194.481 228.548 198.574 224.812 198.02C221.075 197.472 220.925 192.517 221.739 186.974C222.553 181.431 224.032 177.393 227.768 177.94C231.505 178.488 234.776 183.388 233.955 188.931V188.938Z" fill="#263238"/>
<path d="M143.633 166.806C143.943 166.806 144.194 166.555 144.194 166.245C144.194 165.935 143.943 165.684 143.633 165.684C143.323 165.684 143.072 165.935 143.072 166.245C143.072 166.555 143.323 166.806 143.633 166.806Z" fill="#263238"/>
<path d="M149.335 170.288C149.335 170.596 149.081 170.849 148.773 170.849C148.465 170.849 148.212 170.596 148.212 170.288C148.212 169.98 148.465 169.727 148.773 169.727C149.081 169.727 149.335 169.98 149.335 170.288Z" fill="#263238"/>
<path d="M149.958 236.602C149.958 236.91 149.704 237.163 149.396 237.163C149.088 237.163 148.835 236.91 148.835 236.602C148.835 236.294 149.088 236.041 149.396 236.041C149.704 236.041 149.958 236.294 149.958 236.602Z" fill="#263238"/>
<path d="M155.104 240.641C155.104 240.949 154.85 241.202 154.542 241.202C154.234 241.202 153.981 240.949 153.981 240.641C153.981 240.333 154.234 240.08 154.542 240.08C154.85 240.08 155.104 240.333 155.104 240.641Z" fill="#263238"/>
<path d="M56.4665 247.377C54.8377 247.377 52.6341 246.391 51.4502 244.673C51.3407 244.516 51.3817 244.304 51.5391 244.194C51.6965 244.085 51.9087 244.126 52.0182 244.283C53.2979 246.124 56.1107 247.11 57.363 246.528C57.4931 246.466 57.6026 246.391 57.6847 246.295C56.5692 245.782 55.5495 244.769 55.2689 243.229C55.1115 242.36 54.9883 241.19 55.7069 241.026C56.6855 240.807 57.9721 243.182 58.4649 244.981C58.5538 245.317 58.588 245.625 58.5538 245.898C58.985 246.015 59.4093 246.049 59.7788 245.994C60.0731 245.953 60.4974 245.83 60.7164 245.481C59.8883 244.92 59.3272 243.928 59.1424 242.614C58.8755 240.745 59.0739 240.417 59.2861 240.259C59.423 240.157 59.5941 240.136 59.7583 240.205C60.4906 240.519 61.3802 243.168 61.5445 244.673C61.565 244.838 61.565 244.995 61.5445 245.146C61.8251 245.255 62.133 245.317 62.4684 245.324C63.0638 245.358 63.6455 245.166 64.1177 244.892C64.0219 244.831 63.9261 244.762 63.8439 244.687C63.1322 244.078 62.8448 243.113 62.968 241.724C63.0638 240.649 63.3033 240.068 63.7344 239.883C63.885 239.814 64.193 239.753 64.5625 240.047C65.3016 240.636 65.9928 242.511 65.7465 243.852C65.6917 244.133 65.5754 244.393 65.4043 244.639C66.6567 244.858 68.4292 244.502 69.9485 244.126C70.1332 244.078 70.318 244.194 70.3659 244.379C70.4138 244.564 70.2975 244.749 70.1127 244.797C68.2581 245.255 66.2597 245.625 64.85 245.221C64.2203 245.721 63.3375 246.022 62.4547 246.015C62.0509 246.008 61.6745 245.933 61.3323 245.803C61.0654 246.261 60.559 246.569 59.8815 246.672C59.4298 246.74 58.8892 246.699 58.3485 246.542C58.1911 246.802 57.9653 247.007 57.6573 247.151C57.3288 247.301 56.925 247.377 56.4802 247.377H56.4665ZM55.878 241.71C55.8369 241.813 55.7685 242.162 55.9327 243.106C56.1586 244.366 56.973 245.2 57.8763 245.645C57.8763 245.502 57.8421 245.337 57.7942 245.159C57.2535 243.202 56.2338 241.854 55.8711 241.71H55.878ZM59.6899 241.115C59.6899 241.375 59.7104 241.806 59.8131 242.525C59.9499 243.503 60.3126 244.249 60.8533 244.728C60.6959 243.353 60.0868 241.765 59.6899 241.115ZM63.9945 240.519C63.9945 240.519 63.7344 240.649 63.6386 241.792C63.536 242.942 63.7481 243.722 64.2751 244.174C64.3983 244.277 64.5351 244.366 64.6857 244.434C64.8773 244.222 65.0142 243.982 65.0553 243.729C65.24 242.737 64.7678 241.286 64.234 240.697C64.0972 240.547 64.0082 240.513 63.9877 240.513L63.9945 240.519Z" fill="#263238"/>
<path d="M156.629 252.55L158.484 249.334L156.629 246.117H154.645L155.767 249.334L154.645 252.55H156.629Z" fill="#263238"/>
<path d="M154.774 251.009C153.85 251.009 153.097 250.257 153.097 249.333C153.097 248.409 153.85 247.663 154.774 247.663L151.619 247.033L150.784 249.579L152.194 251.728L154.774 251.009Z" fill="#263238"/>
<path d="M155.048 246.117H151.332L149.477 249.334L151.332 252.55H155.048L156.902 249.334L155.048 246.117ZM153.193 251.01C152.269 251.01 151.516 250.258 151.516 249.334C151.516 248.41 152.269 247.664 153.193 247.664C154.117 247.664 154.863 248.41 154.863 249.334C154.863 250.258 154.117 251.01 153.193 251.01Z" fill="#5286FF"/>
<path d="M285.987 245.898L284.612 243.51L285.987 241.121H287.459L286.63 243.51L287.459 245.898H285.987Z" fill="#5286FF"/>
<path d="M287.362 244.754C288.047 244.754 288.608 244.193 288.608 243.509C288.608 242.824 288.047 242.27 287.362 242.27L289.703 241.805L290.326 243.694L289.279 245.288L287.362 244.754Z" fill="#5286FF"/>
<path d="M287.163 241.121H289.921L291.297 243.51L289.921 245.898H287.163L285.788 243.51L287.163 241.121ZM288.539 244.755C289.223 244.755 289.785 244.194 289.785 243.51C289.785 242.825 289.223 242.271 288.539 242.271C287.855 242.271 287.3 242.825 287.3 243.51C287.3 244.194 287.855 244.755 288.539 244.755Z" fill="#263238"/>
<path d="M234.701 249.074H237.794C238.601 249.074 239.258 248.417 239.258 247.609C239.258 246.802 238.601 246.145 237.794 246.145H234.701C233.893 246.145 233.236 246.802 233.236 247.609C233.236 248.417 233.893 249.074 234.701 249.074Z" fill="#263238"/>
<path d="M229.759 246.308C230.526 244.686 232.373 243.954 233.893 244.673C235.412 245.391 236.028 247.28 235.261 248.902C234.495 250.524 232.647 251.256 231.128 250.538C229.609 249.819 228.993 247.93 229.759 246.308Z" fill="#5286FF"/>
<path d="M230.6 250.534L231.448 250.934L234.395 244.681L233.547 244.282L230.6 250.534Z" fill="#263238"/>
</g>
<defs>
<linearGradient id="paint0_linear_20254_63872" x1="159.986" y1="210.293" x2="158.959" y2="208.914" gradientUnits="userSpaceOnUse">
<stop stop-color="#004ADB"/>
<stop offset="1" stop-color="#004ADB" stop-opacity="0.53"/>
</linearGradient>
<linearGradient id="paint1_linear_20254_63872" x1="159.258" y1="209.708" x2="162.119" y2="213.322" gradientUnits="userSpaceOnUse">
<stop stop-color="#00205E"/>
<stop offset="1" stop-color="#0044C7"/>
</linearGradient>
<linearGradient id="paint2_linear_20254_63872" x1="160.605" y1="208.271" x2="163.925" y2="208.36" gradientUnits="userSpaceOnUse">
<stop stop-color="#004ADB"/>
<stop offset="0.474269" stop-color="#4282FE"/>
<stop offset="1" stop-color="#1D6AFF"/>
</linearGradient>
<linearGradient id="paint3_linear_20254_63872" x1="165.717" y1="209.794" x2="162.248" y2="213.429" gradientUnits="userSpaceOnUse">
<stop stop-color="#002D85"/>
<stop offset="1" stop-color="#003EB7"/>
</linearGradient>
<linearGradient id="paint4_linear_20254_63872" x1="162.093" y1="214.029" x2="162.232" y2="210.189" gradientUnits="userSpaceOnUse">
<stop stop-color="#058AF1"/>
<stop offset="1" stop-color="#0037A2"/>
</linearGradient>
<linearGradient id="paint5_linear_20254_63872" x1="164.881" y1="208.691" x2="164.547" y2="210.161" gradientUnits="userSpaceOnUse">
<stop stop-color="#0038A5"/>
<stop offset="1" stop-color="#4C62FF"/>
</linearGradient>
<linearGradient id="paint6_linear_20254_63872" x1="161.351" y1="208.782" x2="163.761" y2="210.735" gradientUnits="userSpaceOnUse">
<stop offset="0.0789377" stop-color="#004ADB"/>
<stop offset="0.567917" stop-color="#6398FF"/>
<stop offset="1" stop-color="#314CFB"/>
</linearGradient>
<linearGradient id="paint7_linear_20254_63872" x1="161.646" y1="208.231" x2="159.497" y2="208.816" gradientUnits="userSpaceOnUse">
<stop stop-color="white"/>
<stop offset="1" stop-color="white" stop-opacity="0"/>
</linearGradient>
<linearGradient id="paint8_linear_20254_63872" x1="163.47" y1="207.976" x2="160.909" y2="207.952" gradientUnits="userSpaceOnUse">
<stop stop-color="white"/>
<stop offset="1" stop-color="white" stop-opacity="0.63"/>
</linearGradient>
<linearGradient id="paint9_linear_20254_63872" x1="163.818" y1="208.297" x2="164.938" y2="209.323" gradientUnits="userSpaceOnUse">
<stop stop-color="white"/>
<stop offset="1" stop-color="white" stop-opacity="0"/>
</linearGradient>
<linearGradient id="paint10_linear_20254_63872" x1="163.327" y1="211.539" x2="162.025" y2="212.6" gradientUnits="userSpaceOnUse">
<stop stop-color="#9AB8FF"/>
<stop offset="1" stop-color="#225DDA"/>
</linearGradient>
<linearGradient id="paint11_linear_20254_63872" x1="163.213" y1="208.982" x2="161.357" y2="206.778" gradientUnits="userSpaceOnUse">
<stop stop-color="#F7F2FF"/>
<stop offset="1" stop-color="#0044C7"/>
</linearGradient>
<linearGradient id="paint12_linear_20254_63872" x1="162.785" y1="208.969" x2="162.121" y2="207.927" gradientUnits="userSpaceOnUse">
<stop stop-color="#F6E7FF"/>
<stop offset="1" stop-color="#0044C9"/>
</linearGradient>
<radialGradient id="paint13_radial_20254_63872" cx="0" cy="0" r="1" gradientUnits="userSpaceOnUse" gradientTransform="translate(163.643 209.02) rotate(-20.646) scale(0.203736 0.198768)">
<stop stop-color="white"/>
<stop offset="1" stop-color="#003AAA"/>
</radialGradient>
<radialGradient id="paint14_radial_20254_63872" cx="0" cy="0" r="1" gradientUnits="userSpaceOnUse" gradientTransform="translate(161.995 213.034) rotate(159.354) scale(0.131884 0.128668)">
<stop stop-color="white"/>
<stop offset="1" stop-color="#003AAA"/>
</radialGradient>
<clipPath id="clip0_20254_63872">
<rect width="342.181" height="255" fill="white"/>
</clipPath>
</defs>
</svg>
