<svg width="20" height="19" viewBox="0 0 20 19" fill="none" xmlns="http://www.w3.org/2000/svg">
<path opacity="0.75" d="M9.63798 0.937624C9.81883 0.578469 10.3316 0.578468 10.5124 0.937623L13.0193 5.91585C13.0905 6.05728 13.2257 6.15552 13.3822 6.17955L18.8914 7.02532C19.2889 7.08634 19.4474 7.574 19.1617 7.85699L15.2017 11.7795C15.0892 11.8909 15.0376 12.0499 15.0631 12.2061L15.9612 17.7071C16.026 18.104 15.6111 18.4053 15.2537 18.2211L10.2995 15.6671C10.1588 15.5945 9.99164 15.5945 9.85089 15.6671L4.8967 18.2211C4.53928 18.4053 4.12445 18.104 4.18925 17.7071L5.08732 12.2061C5.11283 12.0499 5.06118 11.8909 4.94868 11.7795L0.988754 7.85699C0.703064 7.574 0.861513 7.08634 1.25898 7.02532L6.76821 6.17955C6.92472 6.15552 7.05994 6.05728 7.13116 5.91585L9.63798 0.937624Z" fill="white"/>
</svg>
