<svg width="20" height="16" viewBox="0 0 20 16" fill="none" xmlns="http://www.w3.org/2000/svg">
<path d="M18.0313 2.17607L18.1172 2.09063H17.996H2.00398H1.88282L1.96872 2.17607L8.72058 8.89235C9.06307 9.23479 9.51718 9.42293 10 9.42293C10.4828 9.42293 10.9369 9.23485 11.2783 8.89344L18.0313 2.17607ZM1.12188 13.0349V13.1551L1.20712 13.0704L6.2711 8.03859L6.30678 8.00314L6.27112 7.96768L1.20714 2.93037L1.12188 2.84556V2.96582V13.0349ZM1.96948 13.8239L1.88347 13.9094H2.00473H17.9953H18.1165L18.0305 13.8239L12.9685 8.7941L12.9333 8.75906L12.898 8.79412L12.0352 9.65236L12.0352 9.65246C11.4923 10.1953 10.7693 10.4948 10 10.4948C9.23072 10.4948 8.50774 10.1953 7.96375 9.65136L7.96366 9.65127L7.10198 8.79412L7.06674 8.75906L7.03148 8.7941L1.96948 13.8239ZM18.7929 13.0704L18.8781 13.1551V13.0349V2.96582V2.84556L18.7929 2.93037L13.7289 7.96768L13.6932 8.00314L13.7289 8.03859L18.7929 13.0704ZM1.75781 1.01875H18.2422C19.1887 1.01875 19.95 1.78939 19.95 2.72656V13.2734C19.95 14.221 19.1779 14.9812 18.2422 14.9812H1.75781C0.819874 14.9812 0.05 14.2178 0.05 13.2734V2.72656C0.05 1.78776 0.814306 1.01875 1.75781 1.01875Z" fill="#2F61D6" stroke="white" stroke-width="0.1"/>
</svg>
